<svg xmlns="http://www.w3.org/2000/svg" width="316" height="316" viewBox="0 0 1350 1350"><g fill="#03081a"><path d="M632.81 3.2c90.89-5.85 182.98 6.77 268.81 37.31 97.95 34.59 187.51 92.47 259.64 167.19 52.26 54 95.45 116.78 127.07 184.95 36.59 78.54 57.34 164.27 61.67 250.76v64.29c-4.02 85.53-24.34 170.32-60.05 248.17-31.43 68.87-74.68 132.32-127.12 186.91-49.16 51.22-106.42 94.68-169.05 128.11-74.26 39.81-156.12 65.26-239.8 74.92-18.06 2.18-36.23 3.22-54.38 4.19h-46.2c-61.85-2.19-123.43-12.62-182.41-31.4-70.08-22.33-136.44-56.24-195.58-99.95-69.37-51.13-128.82-115.66-174.06-189.01-35.72-57.73-62.57-120.95-79.31-186.74-23.5-92.16-27.19-189.31-10.86-283 19.2-111.36 67.37-217.48 138.23-305.48 44.79-55.83 98.51-104.5 158.5-143.55 60.55-39.49 127.54-69.13 197.52-87.3 12.07-3.3 24.39-5.57 36.51-8.64C571.88 9.42 602.29 4.9 632.81 3.2m6.12 12.73c-6.3.67-12.64.65-18.92 1.42-117.65 9.45-232.35 51.72-328.29 120.42-63.62 45.4-119.13 102.14-163.12 166.75-38.04 55.83-67.5 117.53-86.77 182.28-5.22 18.29-10.52 36.64-13.72 55.41-.12.11-.35.33-.46.45-16.27 80.96-17.71 164.87-3.73 246.28 13.62 79.22 41.93 155.91 83.19 224.92 63.11 106.22 156.64 194.1 266.61 250.42 80.26 41.35 169.15 65.93 259.28 71.42 10.27 1.1 20.63.59 30.92 1.51 50.32.56 100.76-4.03 150.03-14.42 40.31-8.7 79.89-20.89 117.9-36.92 73.71-30.85 141.67-75.35 199.6-130.38 53.3-50.53 98.12-109.98 132-175.15 40.5-77.88 65.24-163.94 71.98-251.47 7.55-94.52-5.22-190.74-37.93-279.81-26.76-73.32-66.79-141.74-117.41-201.14-60.22-70.78-135.43-128.77-219.33-168.74-76.5-36.55-160.13-58.16-244.78-62.97-10.62-1.05-21.32-.48-31.94-1.35-5.02-.16-10.04-.13-15.05-.03-10.01.76-20.06.45-30.06 1.1"/><path d="M635.49 34.64c7.3-.41 14.54-1.49 21.87-1.45 1.98 24.84 4.14 49.67 6.08 74.51-7.2.53-14.4 1.08-21.59 1.77-10.62-12.77-20.83-25.88-31.48-38.63.99 13.63 2.32 27.25 3.23 40.89-7.25.49-14.47 1.2-21.71 1.67-1.89-24.85-4.07-49.69-5.98-74.55 6.7-.67 13.41-1.39 20.16-1.59 1.68-.42 2.52 1.28 3.49 2.3 9.64 12.08 19.42 24.06 29.14 36.09-.69-13.7-2.1-27.35-3.21-41.01M720.13 35.17c8.24-1.41 16.68-.53 24.88.76 6.87 1.1 13.69 4.47 17.72 10.31 2.58 3.56 4.03 7.78 4.97 12.04-7.52.44-14.96 1.69-22.45 2.33-1.32-4.15-4.34-7.89-8.7-8.96-5.08-.96-11.02-.99-15.07 2.71-5.99 4.96-6.84 13.38-7 20.65-.22 6.62 1.2 14.55 7.45 18.14 7.51 4.41 16.86 2.4 24.23-1.3.13-2.39.27-4.78.43-7.16-5.07-.18-10.12-.85-15.19-.97.15-5.24-.07-10.54 1.05-15.7 11.78.92 23.57 1.57 35.36 2.33-.36 9.25-1.27 18.45-1.62 27.7-.18 1.45.03 3.08-.68 4.4-8.87 5.52-18.97 9.61-29.56 9.65-11.21.13-23.59-.97-32.49-8.54-8.39-6.88-12.18-18.01-12.13-28.6-.19-8.07 1.36-16.3 5.35-23.37 4.78-8.65 13.66-14.92 23.45-16.42M424.28 84.28c8.19-3.48 17.82-5.58 26.29-1.76 12.04 5.05 18.64 17.54 22.52 29.34 3.09 8.6 3.1 18.51-1.38 26.64-4.21 7.9-12.49 12.41-20.44 15.78-10.11 4.09-20.21 8.21-30.32 12.31-9.09-23.32-19.1-46.26-28.15-69.58 10.53-4.16 20.97-8.51 31.48-12.73m-3.58 19.77c4.85 12.75 10.35 25.25 15.4 37.93 4.44-1.67 8.95-3.37 12.85-6.13 3.28-2.41 4.17-6.91 3.6-10.74-.86-4.88-2.73-9.52-4.83-13.99-1.99-4.05-4.54-8.23-8.71-10.32-6.31-1.96-12.58.8-18.31 3.25M890.71 93.85c5.72-7.45 14.79-12.63 24.32-12.49 8.71-.42 17.07 2.87 24.63 6.91 6.74 3.72 12.73 9.5 15.1 16.99 1.64 4.92 1.74 10.16 1.52 15.3-6.87-1.33-13.72-2.7-20.57-4.04-.04-2.78.19-5.71-1.13-8.26-3.26-7.06-12.92-10.25-19.67-6.28-5.17 2.83-7.77 8.46-10.09 13.59-2.15 5.3-4.5 11.1-3.02 16.88 2.48 7.13 11.16 10.94 18.25 8.83 3.82-1.59 6.66-4.77 9.14-7.98 5.57 4.42 10.94 9.09 16.33 13.73-5.24 6.48-12.15 12.2-20.62 13.49-11.41 1.73-22.49-3.4-31.83-9.46-10.48-6.74-15.17-20.11-13.3-32.13 1.56-9.07 5.34-17.77 10.94-25.08M341.81 128.12c7.9-1.71 16.47-.63 23.4 3.64 8.84 5.31 14.93 14.17 19.23 23.35 4.44 9.58 4.4 21.27-1.17 30.39-5.73 9.35-15.25 15.77-25.2 19.96-11.46 4.83-25.41 2.29-34.57-6.07-6.88-6.37-12.39-14.45-15.16-23.45-3.21-10.13-1.17-21.77 5.59-30.01 7.06-8.7 17.06-15 27.88-17.81m-2.08 19.73c-5.38 1.9-10.41 6.26-11.08 12.21-.79 6.54 2.87 12.51 6.39 17.71 3.67 5.32 9.01 10.71 15.95 10.61 5.98-.62 11.81-4.44 14.24-10.03 1.57-4.91.28-10.23-2.25-14.58-3.12-5.53-6.58-11.35-12.21-14.65-3.24-2.09-7.4-2.1-11.04-1.27M1009.59 126.97c7.53 4.09 14.65 8.94 21.81 13.66-4.76 20.49-8.83 41.15-13.08 61.75-.12.08-.34.24-.45.32-.55 5.02-1.96 9.89-2.76 14.87.21 1.33-1.44.71-1.95.31-6.26-4.01-12.45-8.12-18.82-11.94 1.03-4.23 2.3-8.39 3.45-12.59-7.51-4.69-14.82-9.71-22.47-14.18-3.1 2.88-6.29 5.66-9.4 8.51-6.7-4.23-13.37-8.48-20.06-12.7 21.11-16.18 42.65-31.8 63.73-48.01m-20.66 41.04c3.98 3.66 9.04 5.95 13.47 9.05 2.38-9.01 5.17-17.91 7.28-26.99-6.86 6.05-14.08 11.7-20.75 17.94M653.54 128.67c49.5-1.86 99.29 2.53 147.54 13.85 73.63 17.2 143.57 49.89 203.97 95.37 71.25 53.34 129.12 124.34 167.09 204.83 17.64 37.44 30.95 76.88 39.75 117.31 20.1 93.45 15.58 192.15-13.69 283.19-24.44 76.46-66.13 147.28-120.85 205.98-51.91 55.76-115.51 100.67-185.6 130.56-83.22 35.91-175.5 50.01-265.7 41.85-85.88-7.52-169.77-36.05-242.61-82.13-83.4-52.56-152.28-127.95-196.73-215.96-19.89-38.88-34.8-80.26-44.77-122.76-21.17-91.02-18.85-187.53 7.31-277.29 30.37-105.77 93.95-201.54 179.12-271.13 76-62.49 169.14-103.97 266.53-118.17a570 570 0 0 1 58.64-5.5m-4.95 13.27c-25.67 1.34-51.25 4.57-76.49 9.49-94.03 18.22-182.68 62.77-253.81 126.85-46 41.27-84.76 90.57-114.06 145-38.93 72.28-60.8 153.7-63.1 235.77-1.08 13.96-.27 27.97.27 41.94 3.34 75.4 23 150.05 57.31 217.29 44.73 87.99 114.33 163.14 198.69 214.4 73.03 44.79 157.09 71.33 242.56 76.91 90.25 6.13 182.08-10.91 263.89-49.63 67.27-31.58 127.7-77.51 176.41-133.62 51.15-58.8 89.2-128.91 110.52-203.89 13.89-48.51 20.23-99.02 20.47-149.41-.78-16.04-.7-32.13-2.62-48.09-8.18-87.59-38.59-172.99-87.71-245.98-57.14-85.63-139.54-154.1-234.19-194.57-74.76-32.11-156.92-46.54-238.14-42.46M1088.49 181.13c5.6 5.22 11.46 10.26 16.56 15.96-5.57 7-12.36 12.94-18.28 19.65-6.6 7.24-13.55 14.13-20.14 21.37 8.7 8.35 17.61 16.49 26.26 24.89-4.15 4.19-8.01 8.65-12.2 12.78-1.24.19-1.99-.98-2.81-1.63-13.57-12.78-27.01-25.7-40.74-38.29 16.81-18.52 34.33-36.39 51.35-54.73M235.54 205.58c5.67-4.59 12.85-8.38 20.38-7.32 4.46.74 8.87 2.62 12.2 5.72-.35 1.24-1.36 2.11-2.17 3.06-4.12 4.25-7.87 8.84-11.96 13.12-2.81-1.36-5.82-3.15-9.08-2.35-4.21 1.28-8.13 4.61-9.13 9.03-.61 2.49 1.43 4.21 2.89 5.86 2.13-.28 4.3-.6 6.16-1.77 9.02-5.18 17.75-11.77 28.24-13.51 8.16-1.45 16.53 2.81 20.83 9.75 3.96 5.54 4.59 12.72 3.33 19.25-2.35 8.76-8.61 15.77-15.23 21.67-5.45 4.72-11.62 9.26-18.95 10.28-7.69.59-15.15-2.67-21.01-7.48 4.95-5.5 9.9-11.01 14.88-16.49 3.13 2.44 7.01 4.7 11.15 3.88 4.53-1.04 8.45-4.41 10.43-8.58.78-3.05.76-7.05-2.29-8.88-3.45-2.52-7.82-.52-11.15 1.21-8.59 4.69-17.04 10.88-27.13 11.48-8.71.78-17.07-5.69-19.31-13.98-2.07-6.81.04-14.21 3.88-19.97 3.58-5.3 8.18-9.85 13.04-13.98M1101.62 298.68c25.27-8.52 50.95-15.87 76.29-24.25 5.11 6.56 10.43 12.98 15.35 19.7-.57 2.87-2.96 5.22-4.31 7.85-11.84 19.5-23.79 38.93-35.57 58.47-.32 1-1.98 2.34-2.66.87-4.64-5.81-9.11-11.75-13.78-17.53 2.19-3.63 5.35-6.71 7.02-10.62-4.63-7.32-10.69-13.75-15.82-20.77-4.05 1.41-7.89 3.46-12.05 4.5-5.07-5.86-9.54-12.23-14.47-18.22m42.4 7.87c3.61 4.08 6.58 8.67 10.3 12.67 5.13-7.75 10.84-15.11 15.73-23-8.61 3.61-17.48 6.58-26.03 10.33"/><path d="M362.74 276.58c210.21.08 420.42.01 630.63.03.91 14.33 3.57 28.84 10.34 41.64 6.77 12.93 17.58 23.41 29.85 31.12 12.85 8.07 27.28 13.15 41.72 17.55.08 147.02 0 294.03.04 441.05-.09 3.49.4 7.09-.62 10.5-23.97 70.9-60.29 138.05-109.5 194.65-46.18 53.39-103.74 97.01-168.04 126.24-35.69 16.4-73.4 28.4-111.92 36-1.81.37-3.67.43-5.44-.05-75.98-18.16-148.75-50.33-212.52-95.56-53.92-38.25-101.65-85.71-138.04-141.03-21.84-33.6-39.88-70.12-49.65-109.13-1.06-4.85-2.67-9.62-2.92-14.6-.03-149.42.08-298.85-.05-448.28a76 76 0 0 1 9.39-1.32c18.64-2.31 36.21-11.87 48.21-26.33 15.25-17.64 22.78-40.27 28.52-62.48m5.26 7.21c-2.59 10.37-6.03 20.53-10.33 30.32-6.35 14.19-14.86 27.65-26.54 38.06-13.11 11.8-30.05 18.89-47.55 20.73.09 147.02 0 294.05.09 441.08 1.84-.89 3.73-1.75 5.34-3.03 4.32-3.43 6.47-8.94 11.19-11.93 4.84-3.01 10.83-3.31 15.8-5.97 4.07-3.92 8.79-7.24 14.25-8.92 2.5-3.48 5.64-7.09 10.21-7.52 6.01-.51 12.09-.33 18.07-1.18 7.36-2.26 14.54-5.46 20.38-10.57 6.83-5.7 16.4-8.47 25.04-5.62 6.13 2.41 12.74.48 19.05.04 8.69-1.06 17.5-2.27 25.68-5.55 3.71-1.64 8-1.44 11.5-3.59 3.99-2.14 6.37-6.2 9.94-8.85 3.6-2.81 8.42-3.91 12.9-3.23 10.88 1.03 22.3-1.38 30.88-8.42 16.3-10.88 32.57-21.81 48.87-32.69 7.45-3.95 16.18-4.31 24.41-3.46 2.71.35 5.24 1.52 7.66 2.75 7.96 4.02 16.03 7.82 24.03 11.76 6.28 3.78 13.9 6.78 21.25 4.52 7.39-3.29 15.63-5.06 23.7-3.78 2.07.49 4.06 1.63 6.26 1.34 4.53-.41 8.2-3.41 12.47-4.67 8.08-2.35 16.21-4.5 24.38-6.53 3.05-.64 6.09-1.33 9.19-1.8 7.86-1.23 15.85-2.13 23.82-1.47 2.8 1.33 6.02 1.24 9.03.79 4.48-1.02 7.27-5.57 11.95-6.04 6.96-.84 13.22 3.21 18.49 7.26 4.73 3.69 10.38 7.16 16.66 6.17 6.57-.29 9.57-7.27 15.5-9.06 4.31-1.41 8.53.96 12.43 2.57 5.07.63 10.19-.37 15.27.3 2.01 1.03 3.99 2.1 5.89 3.34 3.64 2.51 8.56 2.86 11.51 6.43 2.88 2.87 3.12 7.22 5.34 10.5 5.15 6.22 11.87 10.87 18.52 15.35 4.24 2.6 8.44 5.67 13.44 6.65 6.03 1.3 12.02 2.82 18.07 4.12 13.03 1.92 26.47 4.22 38.02 10.93 3.63 1.91 5.82 5.5 8.55 8.42 3.11 3.44 7.11 5.92 11.24 7.98 4.06 1.92 6.59 5.85 10.1 8.53 11.73 8.18 25.35 13.2 39.16 16.58 13.16 3.32 26.42 6.21 39.77 8.66 2.01.29 4.06.56 6.06 1.04.83.1 2.48.29 3.3.38-.03-144.82 0-289.64-.01-434.47-13.39-4.07-26.47-9.47-38.39-16.85-12.9-7.97-24.16-18.91-31.45-32.29-6.54-11.98-10.46-25.48-11.21-39.11-206.4-.01-412.79 0-619.18 0M541.38 808.6c-13.01 4.77-25.46 11.6-35.37 21.42-13.2 12.81-21.79 29.58-27.58 46.87-.84-.51-1.68-1.01-2.5-1.5-.76 3.06-1.21 6.33.72 9.09-.34-.04-1.04-.13-1.39-.17.26 3.06.14 6.66-2.51 8.73.16.51.48 1.54.63 2.05-.97 6.98-2.92 13.85-3.26 20.94-2.08-3.98-2.87-8.44-4.38-12.62-4.59-13-10.79-25.72-20.25-35.9-10.65-11.73-25.04-19.61-40.12-24.08-.06 1.47.47 2.66 1.58 3.57 13.33 11.33 25.57 24.37 33.97 39.83-4.52-5.67-10.69-10.45-17.94-11.84.18 1.82.77 3.58 1.96 5.02 9.04 12.83 15.78 27.16 20.34 42.16-.13.47-.25.96-.37 1.46-6.03-12.05-12.85-23.79-21.12-34.46-3.9-4.81-8.06-9.85-13.9-12.32-3.36-1.41-7.28-.02-9.04 3.16-3.33 5.67-3.74 12.56-3.88 18.99.41.31 1.24.93 1.65 1.24 1.79-3.81 3.32-8.09 6.86-10.66 3.08-2.23 7.02.38 8.67 3.2 6.58 10.65 12.25 21.85 17.8 33.07 4.52 9.83 9.09 19.71 12.09 30.14 1.07 4.12 2.58 8.76.32 12.76-11.36-1.78-22.93-1.1-34.38-1.59-16.76.16-33.58.14-50.22 2.29 13.99 17.49 29.06 34.12 45.16 49.69 1.51 1.74 4.03 1.01 6.06 1.12 19.73-.53 39.57-4.67 57.17-13.81 15.32-6.98 33.37-4.19 47.75 3.78 12.41 7.09 25.9 12.48 40.06 14.8 22.29 3.89 45.34.29 66.41-7.52 10.64-4.19 21.54-7.83 32.67-10.5 13.57-2.98 28.27-2.76 41.13 2.94 16.87 8.22 35.16 13.58 53.85 15.46 22.79 2.59 46.02-.69 67.77-7.71 11.29-5.04 23.83-8.47 36.26-6.5 5.53.65 10.85 2.36 16.03 4.37 22.62 8.56 46.8 12.01 70.82 13.6 2.51-1.85 4.43-4.35 6.61-6.55 52.7-56.15 91.63-124.33 117.46-196.66 1.63-4.74 3.75-9.44 3.73-14.55-31.41-.18-62.83.23-94.23.18-.03 20.31.02 40.62.1 60.93-7.63 0-15.27-.07-22.9-.07-.06-15.57.27-31.15-.11-46.72-17.59.12-35.19-.1-52.79-.02-.08 30.67.02 61.34.02 92.01-15.87-.05-31.75-.03-47.63-.06.07-20.64.08-41.28.08-61.92-26.58.22-53.17-.41-79.73.5-.14 20.46-.11 40.93-.12 61.39-7.68 0-15.35.02-23.02.01.04-5.37 0-10.73.05-16.09-5.52.17-11.09-.43-16.57.28-.28 5.22-.09 10.47-.02 15.7-4.23.16-8.46.16-12.68-.01.19-6.41.04-12.81.12-19.2-6.72-.05-13.44-.11-20.16.06.13 6.43.12 12.87.02 19.31-10.86-.12-21.71 0-32.57-.12-.19 19.22-.18 38.44-.3 57.67-45.07.35-90.15.48-135.22.87-8.35-.47-16.35-3.34-24.54-4.81-1.49-29.09 12.68-56.53 31.6-77.74.94.64 1.89 1.3 2.84 1.95.34-2.14.65-4.27.96-6.4.62 3.19 2.57 5.78 5.11 7.75.81-3.49.67-7.53-2.89-9.37 3.41 1.03 5.29-2.07 6.54-4.68-.63-1.02-1.24-2.03-1.83-3.04-3.2 1.62-6.8-1-9.7 1.27-2.78 2.02-4.31 6.76-8.61 5.48-.18 1.16-.35 2.33-.52 3.51-1.13-1-2.26-2-3.38-2.98 2.05-1.74 3.1-4.21 3.95-6.68-2.85.47-5.43 1.78-7.56 3.71-.09-.87-.27-2.61-.35-3.48-2.86 2.13-5.54 4.78-5.48 8.65l3.66-.48c.59-.8 1.2-1.6 1.8-2.38.37.12 1.1.37 1.47.49-.06 2.26.66 4.38 1.78 6.35-.26.5-.78 1.51-1.04 2.01-.59-1.46-1.03-2.98-1.83-4.32-.97-1.85-3.23-.98-4.88-1.26.69 1.48-.25 2.83-1.09 3.94-.98-.1-2.93-.28-3.91-.38.37 3.74 3.67 5.85 6.57 7.65.18-2.03.18-4.1-1.06-5.84.44-.51.88-1.01 1.33-1.5.92 1.12 2.2 2.01 3.01 3.26-9.69 13.15-16.48 28.18-21.69 43.6-.6-14.28 2.65-28.44 6.58-42.09 1.95 2.08 4.11 4.04 6.89 4.92.21-3.76-1.74-7.31-5.64-8.04 1.57-2.42 2.77-5.08 2.76-8.01.22 1.88.5 3.74.85 5.63 1.29-1.17 2.97-2.08 3.69-3.74.78-2.55-1.65-4.47-1.9-6.84.97-2.76 2.5-5.26 3.78-7.87.97 0 2.9.01 3.86.02a41 41 0 0 1-1.93-3.54c.15-.38.47-1.13.63-1.51 3.71.8 6.47-1.66 7.84-4.9-1.68.15-3.35.31-5.01.51 2.84-4.53 5.88-8.92 9.11-13.18 1.01-.98.65-2.43.66-3.66-6.58 3.61-12.39 8.46-17.74 13.67-2.37 3-7.28 2.12-8.95 5.9.54.26 1.62.79 2.16 1.05-.56.92-1.19 1.78-1.79 2.68-1.68-.09-3.77-.81-4.99.78-.61 1.69 1.66 1.91 2.6 2.79-4.58 6.81-8.17 14.22-11.24 21.82 1.29-6.89 3.71-13.48 6.03-20.07.45-.24 1.35-.72 1.81-.95-.32-2.11-.54-4.45 1.3-5.91 1.49-1 3.04-2.1 3.74-3.83-.57-1.14-1.7-2.24-.74-3.48 2.34-4.87 4.91-9.65 7.83-14.19 2.48 1.21 4 4.28 7.13 4.54-.21-3.52-1.57-7.01-5.33-7.9.84-1.03 1.7-2.02 2.55-3.02 4.12-.13 4.02-4.4 4.96-7.29 6.59-9.39 14.99-17.3 22.88-25.54-.14-2.81-2.89-.79-4.3-.54m-87.63 10.05c.11 2.33-.03 5.01 1.72 6.84 1.07 1.73 3.32.83 4.96 1.06-.51-3.8-3.53-6.21-6.68-7.9m7.5.31c-.04 2-.38 4.07.13 6.05.81 2.18 3.35 2.38 5.33 2.72.16-3.83-2.61-6.68-5.46-8.77m-25.99 2.56c1.32 1.77 2.44 4.04 4.68 4.82 1.82.33 3.48-.64 5.13-1.2-2.08-3.45-6.16-3.88-9.81-3.62m8.79-.08c1.57 1.91 2.99 4.95 5.89 4.9 1.74.37 2.79-1.08 3.79-2.2-2.65-2.44-6.2-3.04-9.68-2.7m22.65.11c-.62 2.25.3 4.39 1.06 6.47 1.32.54 2.65 1.09 3.98 1.64-.13-2.07.51-4.59-1.31-6.12-1.09-.82-2.1-3.2-3.73-1.99m-39.55 1.58c1.17 1.51 2.28 3.1 3.78 4.34 1.9.41 3.83-.15 5.73-.32-1.01-4.41-5.95-4.27-9.51-4.02m-7.41 1.12c1.12 2.33 3.01 4.11 5.13 5.55a13.2 13.2 0 0 0-3.83 6.08c3.51-.46 6.72-2.04 8.97-4.81a89 89 0 0 1-2.83-2.04l1.89-1.57c-2.08-3.13-5.93-3.37-9.33-3.21m53.5 1.38c.12 2.38-.4 5.11.95 7.26 1.2.37 2.4.36 3.59-.02 1.88-3-2.08-6.08-4.54-7.24m-37.21 8.19c3.51-.44 6.68-2.04 8.87-4.85-1.28-1.09-3.21-2.29-4.85-1.21-2.48 1.02-3.15 3.81-4.02 6.06m6.97.01c3.74.02 7.08-1.91 9.01-5.08-1.58-.43-3.29-1.66-4.94-.79-2.13 1.31-3.05 3.73-4.07 5.87m9.01.18c3.31-1.22 6.95-2.91 7.63-6.81q-2.355-.045-4.68.18c-2.26 1.39-2.49 4.27-2.95 6.63m-40.45-2.37c-.03.43-.11 1.29-.14 1.72 3.35.28 7.68 1.23 9.43-2.49-2.91-2.35-6.74-1.8-9.29.77m16.6 3.09c3.7 0 7.1-1.85 8.94-5.08-1.37-.66-2.79-1.13-4.25-1.39-2.35 1.47-3.43 4.12-4.69 6.47m29.67.91c3.55-1.15 6.93-3.25 7.86-7.14-.95.02-2.85.05-3.8.07-3.08.85-3.62 4.39-4.06 7.07m21.99 2c-3.8-1.29-6.1 2.24-7.71 5.04 3.58.11 7.81-.56 9.4-4.25 2.6-2.97.58-6.83-.86-9.8-2.34 2.38-2.72 6.23-.83 9.01m56.8-5.93q-.27 1.53-.51 3.09c1.65-.18 3.46.16 5-.62 1.57-1.65 1.98-3.98 2.7-6.04-2.62.71-5.09 1.84-7.19 3.57m-69.88-1.11c-2.32 1.25-2.7 4.07-3.52 6.31 3.72-.14 7.08-2.65 7.97-6.33-1.49-.04-3-.33-4.45.02m75.03 5.17c1.85-.3 4.29.39 5.57-1.39 1.2-1.52 1.63-3.49 2.31-5.26-3.58.64-7.85 2.39-7.88 6.65m-18.27-.19c-.27 1.23-1.45 3.16.53 3.53 2.19.11 3.46-2.02 5.18-3.04.78 3.65 1.89 7.4 5.41 9.36.19-3.06.96-6.83-2.21-8.66 1.89-1.83 3.7-3.9 3.46-6.75-2.93.76-5.72 2.08-7.45 4.64 0-1.39-.02-2.77-.05-4.13-1.87 1.39-4.02 2.75-4.87 5.05m24.98 1.55c3.85 2.09 7.04-1.81 7.95-5.18-2.91.13-8.98 1.07-7.95 5.18m-79.41 3.01c2.64-1.23 7.28-2.61 6.76-6.1-4.11-2.83-7.05 2.51-6.76 6.1m14.31-2.87c-.84 2 .24 4.08.88 5.98 4.16-1.64 3.38-6.55 2.92-10.08-1.33 1.29-2.83 2.48-3.8 4.1m70.68.55c1.86 1.57 4.23 3.83 6.83 2.27.89-.71 3.69-.87 2.67-2.49-2.91-1.66-6.85-2.26-9.5.22m-18.01-1.8c-.35 3.75 1.65 7.05 4.69 9.09.07-2.34.34-4.71-.18-7.01-1.28-1.14-2.78-1.83-4.51-2.08m5.68.48c-.36 3.73 1.83 7.09 5.01 8.86.09-2.42.98-5.27-.8-7.29-1.17-1.01-2.84-1.06-4.21-1.57m6.07.9c-.49 3.76 1.93 6.73 4.52 9.11.46-2.06 1.59-4.3.38-6.31-.69-2.06-3.13-2.3-4.9-2.8m-60.58 4.27q-.03 2.715 0 5.46c4.25-.43 5.29-4.93 5.63-8.42-1.95.83-3.82 1.83-5.63 2.96m36.87-1.63-.58.63c.98 3.21 4.16 4.7 6.94 6.07-.02-3.29-2.02-9.56-6.36-6.7m38.12.95c1.37 1.33 2.67 3.2 4.82 3.18 2.17-.17 3.86-1.59 5.43-2.95-3.29-1.33-7.08-2.55-10.25-.23m-7.16.25c-.72 4.08 2.46 6.79 5.54 8.73-.19-2.06.57-4.44-.72-6.24-.93-1.81-3.16-1.89-4.82-2.49m-80.11 6.45c3.63.36 7.87-.47 9.27-4.3-1.68-.3-3.48-1.39-5.16-.56-1.95 1.02-2.87 3.17-4.11 4.86m43.96-4.89c.24 3.91 3.48 6.37 6.97 7.42.02-4-2.21-8.53-6.97-7.42m42.7.9c-.6 3.99 2.38 6.87 5.59 8.59-.08-2.16.47-4.61-.96-6.44-1-1.6-3.06-1.61-4.63-2.15m8.4 2.25c1.76 4.01 7.14 2.53 9.33-.37-2.73-.83-8.05-3.36-9.33.37m-91.12 6.62c3.56.01 8.64-.68 9.01-5.18-1.64-.15-3.28-.18-4.91-.07-2.08 1.06-2.99 3.33-4.1 5.25m89.09-4.51c-.17 3.81 2.78 6.44 5.81 8.14-.25-1.99.26-4.18-.69-6-.76-2.26-3.3-1.74-5.12-2.14m8.39.51c.1.82.29 2.46.38 3.28l-2.58-.32c-.51 4.11 3.04 6.8 6.28 8.46.07-2.51-.32-4.97-1.43-7.22 2.68.08 5-1.16 6.92-2.92-3.04-1.3-6.29-2-9.57-1.28m5.9 7.02c.32 4.39 5.07 5.32 8.56 5.87-.76-1.65-1.17-3.53-2.51-4.81-1.46-1.87-4.07-.83-6.05-1.06m-176.73 5.5c1.03 2.12 2.28 4.22 4.98 4.29.55-3.11-1.82-5.27-3.61-7.4-.35.78-1.03 2.33-1.37 3.11m6.48-2.47c-.82 2.48-1.62 7.34 2.18 7.46 1.49-2.5.51-6.24-2.18-7.46m-7.14 5.2.91-.31c-.37-2.72-3.61-3.57-5.31-5.18-.39 2.67.73 7.33 4.4 5.49m-17.83-3.25c1.46 2.54 4.17 5.31 7.29 3.48.42-3.66-4.82-3.48-7.29-3.48m6.53-.37a9.16 9.16 0 0 0 4.41 4.19c-2.04 2.29-.87 5.09.31 7.51 2.63-3.31 3.21-8.48.08-11.65-1.2-.01-3.6-.04-4.8-.05m-10.62 2.25c.85 3.42 4.28 4.96 7.48 3.67-.76-3.52-4.6-3.58-7.48-3.67m8.95 6.53c.46 1.39 1.14 2.72 1.79 4.05 1.61-2.55 2.46-5.52 1.44-8.47-1.56.97-3.65 2.22-3.23 4.42m10.56-3.5c-2.09 1.42-1.03 8.14 1.61 3.96.98 1.14 1.9 2.35 2.93 3.47 2.48-1.45 3.06-4.39 3.11-7.03-1.44 1.03-3.1 1.8-4.84 2.17.17-1.28-1.47-5.64-2.81-2.57m-24.76 1.07c1.74 2.23 6.23 4.92 7.95 1.36-1.43-2.83-5.42-1.75-7.95-1.36m9.98 2.38c-.45 2.16.68 4.14 1.66 5.99 1.33-2.56 2.46-5.37 1.48-8.26-1.15.57-2.56.98-3.14 2.27m24.02 5.34c1.93-2.12 3.73-4.52 3.34-7.58-4.02.11-5.23 4.54-3.34 7.58m116.53-4.1c2.18 3.26 5.91 1.55 8.84.57-2.18-2.97-6.35-3.49-8.84-.57m-143.17 6.79c.98-2.41 2.16-4.92 1.52-7.58-4.67-.93-3.79 5.45-1.52 7.58M522 871.02c-.65 3.23 4.15 2.83 6.23 3.65-.56-1.67-1.07-3.49-2.62-4.51-1.11-1.03-3.89-1.41-3.61.86m-147.71 2.54c2.92.73 6.53.25 6.74-3.51-2.32-.01-7.08.35-6.74 3.51m5.89.61c-2.35 1.04-1.72 3.54-1.59 5.61-.95-.79-2.04-1.5-2.51-2.66-2.92 1.77-2.91 5.3-1.42 8.02 1.11-1.39 1.74-3.31 3.41-4.16 3.22.25 6.39-6.97 2.11-6.81m-12.25 4.09c1.72.25 3.45.38 5.2.39 1.65-.76 1.9-2.71 2.6-4.17-3.13-.18-6.06 1.16-7.8 3.78m162.42 4.53c-1.06 3.68 3 1.95 5.09 1.93 1.21-1.97 2.31-4.06 2.33-6.42-2.66 1.11-5.59 2.12-7.42 4.49m-166.7.63c2.29.2 6.01 1.39 7.05-1.55.61-1.6.01-2.3-1.78-2.09-2.26.28-3.86 2.01-5.27 3.64m107.63-3.26c.01 3.12-.24 7.14 3.49 8.35.07-1.92.13-3.82.17-5.72-1.22-.9-2.44-1.77-3.66-2.63m-101.21 9.68c2.49-1.95 4.4-5.29 2.29-8.27-3.13 1.82-3.15 5.16-2.29 8.27m-10.46-2.3c1.83 1.1 3.89 1.2 5.97.85-.06 1.98-.05 4.13 1.25 5.79 1.7-2.34 2.95-4.99 2.5-7.95-1.07.5-2.12 1.02-3.15 1.58.33-1.03.66-2.05 1-3.06-2.91-.44-5.39 1.06-7.57 2.79m107.55-2.29c-.02 3.46 2.38 6.06 5.31 7.56-.23-1.71 1.08-4.26-.8-5.41-1.35-1.02-2.97-1.53-4.51-2.15m82.62 1.68c-2.41.94.58 2.87 1.61 3.47 2.36.99 4.8-.38 6.68-1.73-1.44-2.64-5.79-2.95-8.29-1.74m7.24 3.58c.29 4.86 7.81 4.93 9.03.76-2.83-1.47-6.02-1.88-9.03-.76m-198.72 7.42c2.76-1.3 6.23-3.04 5.46-6.73-3.61.17-5.6 3.35-5.46 6.73m196.43 2.17c-.07-2.04.06-4.09-.46-6.06-1.06-1.68-3.14-2.05-4.79-2.83-1.47 4.08 2.32 6.9 5.25 8.89m9.31-4.04c1.94 4.07 7.27 2.87 9.58-.2-2.8-1.01-7.75-3.27-9.58.2m-8.7-1.71c.1 3.83 3.2 6.42 6.18 8.3 1.08-4.11-1.22-9.4-6.18-8.3m7.12 3.81c-.4 3.99 2.66 6.62 5.66 8.56 1.1-3.97-.89-8.98-5.66-8.56m7.45 1.79c1.61 2.23 4.33 3.78 7.07 2.51.72-.73 3.56-1.21 2.3-2.57-2.9-1.71-6.57-2-9.37.06m-1.22 2.06c-.26 3.88 2.75 6.36 5.65 8.32.29-2.65.02-5.27-1.23-7.64-1.47-.24-2.96-.48-4.42-.68m7.33 4.79c2.02 3.2 5.57 4.64 9.26 4.63-1.14-2.04-1.97-4.68-4.34-5.59-1.72-.68-3.35.43-4.92.96m-105.14 131.31c-10.24 2.67-18.67 9.31-27.63 14.62.32.96 1.33 1.42 2.05 2.1 8.77 6.9 17.73 13.57 26.8 20.08 2.14 1.81 4.7-.4 6.85-1.07 3.65-1.43 7.14-3.43 11.03-4.12 7.32-.54 14.73 1.58 20.87 5.58 17.66 9.86 36.77 18.2 57.13 19.95 6.87-.15 13.62-1.47 20.25-3.23 19.25-4.79 38.58-9.25 57.82-14.05 5.62-1.39 11.26-2.66 16.86-4.13 10.76-2.89 22.35-2.12 33 .95 11.81 3.17 23.21 7.64 34.97 11.01 10.12 3.12 20.56 5.04 31.06 6.35 27.72 1.7 54.91-5.78 81.14-13.88 11.74-2.91 23.53 1.61 34 6.64 10.77-7.8 21.3-15.97 31.26-24.78-5.43-2.08-10.84-4.2-16.24-6.32-1.41-.53-2.79-1.07-4.18-1.57-5.31-2.09-10.54-4.39-15.96-6.14-7.54-1.8-15.43-1.87-23.07-.68-7.51.98-14.58 3.79-21.86 5.7-18.36 5.05-37.08 9.25-56.14 10.33-11.25.49-22.87.02-33.46-4.13-4.52-2-8.92-4.28-13.49-6.15-22.5-9.29-47.88-15.19-71.93-8.67-9.13 2.82-17.94 6.57-27.07 9.38-14.55 4.8-29.59 8.67-44.97 9.27-13.36.48-26.85-2.34-38.74-8.49-11.06-5.91-22.61-11.08-34.76-14.27-11.61-3.02-24-3.77-35.59-.28m173.2 76.99c-3.11.89-6.2 1.87-9.33 2.7-4.26 1.12-8.54 2.19-12.84 3.13-18.8 4.21-38.01 6.3-57.23 7.38 20.69 9.38 41.71 18.14 63.36 25.03 9.87-4.63 20.21-8.25 30.88-10.48 5.9-1.25 11.91-1.47 17.89-2.07 19.63-.42 39.14 4.86 56.44 14.04 2.19 1.52 4.67-.06 6.92-.62 19.07-5.97 37.61-13.46 55.82-21.67-17.86-2.79-35.45-7.07-52.94-11.61-1.34-.36-2.66-.66-3.97-1.03-12.8-3.44-25.58-6.97-38.28-10.73-9.03-2.55-18.56-3.41-27.86-2.11-9.96 1.26-19.42 4.78-28.86 8.04M157.27 293.13c4.13-5.26 9.14-10.39 15.81-12.2 5.78-1.41 11.91-.86 17.56.91-3.23 6.89-6.28 13.85-9.54 20.72-11.3-3.77-21.36 11.01-16.32 20.89 3.47 6.98 10.32 11.51 17.07 14.96 5.48 2.91 12.82 3.35 17.77-.86 6.07-4.73 8.2-12.52 9.02-19.83-1.84-1.3-3.61-2.71-5.62-3.73-4.01 2.98-5.54 8.55-9.28 11.84-4.62-2.12-8.58-5.64-12.76-8.56 6.86-9.66 13.52-19.46 20.21-29.24 8.88 5.86 17.53 12.05 26.34 18.01.14 9.55-1.03 19.38-5.42 27.99-4.39 8.73-10.3 16.99-18.31 22.73-10.14 7.05-23.99 6.38-34.74 1.07-8.26-4.2-15.93-10.22-20.49-18.42-5.46-9.26-5.71-21.26-1.04-30.89 2.55-5.53 6.05-10.56 9.74-15.39M1169.35 388.9c22.82-10.18 45.46-20.78 68.3-30.94 4.12 9.31 8.6 18.48 12.47 27.91-9.77 7.65-19.34 15.55-29.02 23.3-2.48 1.94-5.05 3.79-7.08 6.21 12.96-2.68 26.05-4.71 39.05-7.22 2.34-.5 4.72-.75 7.13-.92 4.09 9.08 7.93 18.29 12.47 27.16-22.58 10.78-45.57 20.73-68.23 31.36-2.89-5.63-5.22-11.51-8.01-17.18 16.96-7.92 34.14-15.4 51.05-23.45-12.91 1.82-25.67 4.58-38.53 6.71-6.31.96-12.52 2.79-18.93 2.88-2.07-5.12-4.48-10.08-6.82-15.08 14.88-12.21 30.13-23.99 44.91-36.33-5.76 1.97-11.13 4.96-16.71 7.39-11.41 5.19-22.81 10.4-34.28 15.46-2.56-5.77-5.18-11.51-7.77-17.26M96.16 395.5c3.09-6.54 5.97-13.18 8.83-19.83 22.97 9.94 45.87 20.03 68.81 30.02-2.89 6.6-5.86 13.16-8.59 19.82-16.32 3.32-32.71 6.28-49.06 9.42 12.43 5.78 25.19 10.82 37.63 16.59-2.96 6.6-5.83 13.25-8.66 19.91-22.99-9.99-45.94-20.06-68.91-30.1 3.22-6.49 5.53-13.49 9.09-19.75 16.24-3.28 32.61-6 48.84-9.35-12.6-5.71-25.42-10.94-37.98-16.73M1215.09 494.32c23.97-7.04 47.87-14.36 71.85-21.32 3.57 12.12 7.36 24.18 10.78 36.34.11.12.32.36.43.48 1.8 6.45 3.93 13.38 1.73 20.02-2.82 9.14-13.96 14.86-22.93 11.27-3.4-1.08-5.8-3.86-8.31-6.22.11 5.08-.72 10.54-4.32 14.4-8.35 9.18-25.6 8.36-31.79-2.88-5.68-9.69-8.06-20.76-11.37-31.37-1.97-6.93-4.16-13.79-6.07-20.72m50.32 9.51c1.75 4.86 2.35 10.25 5.2 14.66 1.1 1.83 3.29 2.15 5.15 2.82 2.84-.77 6.35-1.98 6.98-5.31.49-5.71-2.39-10.98-3.6-16.44-4.56 1.48-9.16 2.84-13.73 4.27m-28.2 8.36c1.29 4.25 2.45 8.55 3.85 12.77 1 2.93 2.71 6.22 6.05 6.91 4.32 1.18 9.17-2.2 9.14-6.79-.48-5.91-3.16-11.32-4.24-17.1-5.02 1.07-9.89 2.72-14.8 4.21M61.7 484.27c13.1 3.66 26.2 7.3 39.29 11 9.15 2.28 18.59 6.69 23.32 15.3 5.56 9 3.9 20.31.82 29.88-2.87 8.38-6.13 17.8-14.36 22.37-6.94 4.8-15.8 4.49-23.76 3.2-14.96-4.16-29.88-8.48-44.85-12.59 2.01-7.46 4.12-14.89 6.27-22.3 15.16 4.25 30.31 8.57 45.47 12.81 5.1 1.64 10.88-1.09 13.32-5.75 2.04-3.98 2.93-9.06.73-13.16-1.88-3.52-5.7-5.37-9.38-6.41-14.42-4.1-28.88-8.04-43.29-12.18 2.31-7.34 4.29-14.78 6.42-22.17M1238.16 576.11c25.74 7.28 51.47 14.62 77.16 22.09-.01 8.41 1.99 16.84 1.31 25.23-20.31 9.73-40.7 19.31-61.1 28.88-3.59 1.66-7 3.8-10.87 4.73-.62-7.83-1.17-15.66-1.98-23.47 3.82-1.85 7.76-3.43 11.84-4.63.39-5.7-.96-11.3-1.04-16.97-.09-3.25-.57-6.45-.94-9.67-4.14-.96-8.31-1.78-12.47-2.56-.69-7.87-1.42-15.74-1.91-23.63m31.07 29.95c.25 5.49 1.03 10.93 1.33 16.42 8.58-3.62 17.38-6.7 25.89-10.47-9.02-2.22-18.12-4.12-27.22-5.95M90.39 642.48c.76-12.03 1.65-24.05 2.26-36.08 6.22.03 12.37 1.1 18.58 1.14-1.33 19.71-2.58 39.44-3.8 59.16-24.98-1.47-49.95-3.21-74.93-4.71.32-7.75 1.29-15.45 1.27-23.22 18.86 1.35 37.75 2.44 56.62 3.71M1237.02 767.48c24.86 5.61 49.8 10.88 74.59 16.78-1.65 6.75-3.11 13.54-4.56 20.33-16.24-3.51-32.45-7.16-48.65-10.83 3.24 7.52 5.35 15.56 5.51 23.78-5.48-1.38-11.04-2.39-16.48-3.89-.76-11.14-4.81-22.63-14.06-29.51 1.31-5.54 2.68-11.06 3.65-16.66M78.49 778.01c5.48-1.34 10.96-2.65 16.45-3.91 5.59 9.45 14.09 18.26 25.42 19.99 1.77 5.6 3.09 11.33 4.32 17.08-24.77 5.7-49.41 11.96-74.17 17.71-1.72-6.73-3.19-13.51-4.93-20.23 16.06-4.24 32.27-7.87 48.39-11.85-6.22-5.3-11.62-11.57-15.48-18.79M1234.01 839.03c11.52-.93 22.95 2.32 33.51 6.7 6.28 2.8 12.54 6.43 16.73 12.04 4.22 5.71 4.67 13.32 3.2 20.06-1.7 7.89-4.67 16.19-11.34 21.24-5.89 4.69-13.82 5.94-21.13 4.94-11.74-1.53-23.38-5.16-33.42-11.51-5.49-3.36-9.65-8.89-10.89-15.25-1.44-9.29.96-18.85 5.61-26.91 3.74-6.29 10.5-10.46 17.73-11.31m-4.67 20.48c-4.96 2.1-6.18 9.54-1.87 12.95 6.35 5.28 14.62 7.3 22.34 9.75 6.05 1.47 12.72 3.78 18.81 1.28 4.81-2.15 5.5-9.38 1.64-12.74-5.55-5.24-13.32-6.91-20.33-9.29-6.62-1.64-13.86-4.49-20.59-1.95M115.66 851.71c5.48-2.15 10.89-4.76 16.72-5.75 6.69 18.99 13.99 37.75 20.63 56.75-4.38 1.58-8.75 3.18-13.12 4.77-11.63-6.09-24.76-9.34-37.9-9.04-9.83-.34-19.51 1.72-28.98 4.11-2.18-6.52-4.71-12.93-6.94-19.43 9.86-1.97 19.88-3.69 29.98-3.39 10.98.46 21.7 3.16 32.13 6.48-3.86-11.61-8.4-22.98-12.52-34.5M1200.53 915.78c7.85-1.35 15.63 1.38 22.91 4.06 7.95 3.48 15.8 7.6 22.32 13.43 4.66 4.33 8.82 10.07 8.88 16.68.45 8.1-3.15 15.75-7.33 22.45-3.17 5.23-8.3 9.23-14.23 10.83-7.82 2.58-16.1.01-23.53-2.64-10.13-4.1-20.37-9.16-27.61-17.59-3.83-4.32-5.54-10.23-5.17-15.94.44-6.98 3.31-13.55 6.91-19.46 3.65-6.05 9.81-10.65 16.85-11.82m-1.93 18.97c-4.79.95-7.78 6.75-5.52 11.16 2.82 4.92 8.15 7.51 12.88 10.25 6.46 3.32 12.99 6.86 20.14 8.45 3.49.27 7.92.99 10.39-2.15 3.03-3.17 2.26-8.35-.74-11.25-5.42-5.59-12.77-8.67-19.65-12.03-5.53-2.29-11.33-5.4-17.5-4.43M102.52 937.83c5.13-2.61 10.25-5.21 15.39-7.8 19.09 4.19 38.08 8.91 57.22 12.87 3.03 5.31 5.49 10.93 8.53 16.25-13.64 7.19-27.41 14.15-41.13 21.19a65 65 0 0 1 4.27 8.6c-4.87 2.15-9.46 4.88-14.31 7.08-1.34-2.71-2.71-5.42-4.04-8.13-4.43 1.7-8.45 4.27-12.8 6.15-2.65-5.41-5.5-10.72-8.16-16.13 4.17-2.06 8.3-4.16 12.41-6.32-5.79-11.25-11.36-22.63-17.38-33.76m22.72 8.66c3.06 5.83 5.93 11.77 9.04 17.58 7.12-3.31 13.99-7.13 20.97-10.7-10-2.32-19.99-4.66-30.01-6.88M1154.15 988.37c6.3-3.1 14.19-2.48 19.97 1.51 7.72 4.88 11.1 14.32 11.51 23.09 1.07 8.18.35 16.44 1.23 24.63l.76-.8c6.39-8.3 11.96-17.2 17.94-25.8 4.91 2.89 9.48 6.32 14.18 9.54-12.05 17.05-23.44 34.56-35.64 51.5-6.46-6.1-11-14.16-12.62-22.91-2.47-11.12-1.51-22.61-3.49-33.79-.94-4.27-3.98-9.29-8.94-9.05-4.54-.5-8.16 3.55-9.22 7.6-.95 4.52 2.49 8.15 5.34 11.15-4.42 5.28-8.54 10.83-13.15 15.94-5.31-4.52-9.96-10.72-10.17-17.96-.35-7.61 3.52-14.51 7.71-20.56 3.91-5.52 8.27-11.21 14.59-14.09M181.89 1000.51c5.73-2.79 12.11-5.34 18.59-3.91 8.31 1.64 14.18 8.42 18.96 14.92 4.2 6.05 8.53 12.85 8.21 20.53.08 7.65-4.81 14.94-11.73 18.1-8.11 4.23-17.73 2.48-26.06-.12-6.5-2.12-12.93-4.6-19.73-5.59 6.22 8.91 12.98 17.43 19.11 26.41-4.54 3.29-9.05 6.63-13.54 9.99-8.54-11.64-17.09-23.28-25.63-34.91-3.7-5.33-7.93-10.28-11.28-15.84 8.36-4.28 18-5.89 27.26-4.13 9.6 1.41 18.7 4.92 28.1 7.18 4.51.86 10.19 1.42 13.52-2.47 4.5-4.58 1.1-12.81-4.67-14.42-3.54-1.14-7.05.83-10.23 2.18-3.62-5.98-7.68-11.7-10.88-17.92M991.3 1148.92c6.94-4.85 13.47-10.39 20.67-14.79 22.38 14.39 44.57 29.09 66.87 43.61-6.6 4.65-12.86 9.81-19.65 14.16-3.58-2.31-6.83-5.08-10.23-7.61-6.9 5.33-14.28 10.08-20.98 15.66.85 4.25 2.97 8.13 3.87 12.38-6.46 4.37-12.53 9.29-19.03 13.61-7.13-25.68-14.22-51.38-21.52-77.02m21.82 8.81c2.76 8.77 6.04 17.39 9.04 26.1 4.35-3.17 8.69-6.36 13.04-9.53-7.13-5.81-14.59-11.24-22.08-16.57M320.52 1211.32c13.66-20.92 26.96-42.07 40.42-63.11 6.56 4.16 13.2 8.22 19.67 12.54-10.44 15.68-20.31 31.73-30.56 47.53 10.17 6.6 20.48 12.97 30.65 19.58-3.49 5.04-6.69 10.28-9.95 15.48-16.77-10.64-33.5-21.34-50.23-32.02M900.22 1197.79c6.72-2.8 13.55-5.34 20.2-8.31 9.68 23.1 19.05 46.35 28.39 69.59-5.94 2.33-11.84 4.73-17.75 7.15-1.1.32-2.4 1.14-3.46.28-13.54-8.7-26.71-17.99-40.3-26.61 5.14 12.54 9.93 25.24 15.45 37.63-6.59 3.12-13.4 5.9-20.29 8.22-9.62-22.96-18.72-46.14-28.33-69.1 6.65-2.79 13.37-5.42 20-8.25 13.93 9.16 27.76 18.47 41.68 27.64-5.03-12.82-10.35-25.52-15.59-38.24M416.74 1264.91c17.93-19.89 35.8-39.84 53.94-59.54 7.57 3.47 15.48 6.15 23.16 9.38-.19 26.71-.39 53.42-1.3 80.11-7.32-3.19-14.83-5.88-22.23-8.85-.2-4.25 1.03-8.76.48-12.79-7.67-3.89-16.07-6.35-23.99-9.78-2.81 3.39-5.42 6.96-8.38 10.24-7.1-3.23-14.46-5.84-21.68-8.77m40.53-14.77c5.09 1.96 10.1 4.13 15.25 5.94.88-9.31 1.65-18.63 2.21-27.96-5.78 7.37-11.62 14.7-17.46 22.02M769.36 1236.82c7.62-1.06 15.29-1.82 22.89-3.02 1.71 10.49 2.74 21.08 4.22 31.61.69 7.84 3.02 15.73 1.53 23.62-1.49 9.52-8.06 18.4-17.26 21.68-8.8 3.29-18.35 4-27.66 3.69-10.49-.33-20.25-7.7-23.71-17.56-2.73-6.25-3-13.13-3.93-19.79-1.41-11.4-3.03-22.78-4.26-34.21 7.64-.84 15.26-1.9 22.89-2.85 1.72 13.66 3.45 27.33 5.23 41 .4 3.44.61 7.08 2.36 10.19 4.63 8.38 18.9 7.14 22.79-1.3 1.14-2.5 1.2-5.29.85-7.95-2.13-15.02-3.83-30.09-5.94-45.11M595.06 1240.39c9.09-2.89 18.83-1.73 28.05-.2 6.43 1.12 13.09 3.22 17.59 8.21 4.13 4.17 6.37 9.83 7.29 15.56-7.44.6-14.89 1-22.32 1.58-1.24-2.89-2.45-6.14-5.32-7.79-6.61-4.12-16.56-3.18-21.32 3.35-4.84 6.92-5.2 15.77-4.79 23.92.11 5.76 3.85 11.18 9.16 13.4 6.42 2.43 13.93 1.75 20.11-1.16 2.91-1.33 1.61-5.19 2.21-7.71-5.12-.45-10.2-1.22-15.33-1.51.45-5.24 1.08-10.45 1.64-15.67 11.9 1.5 23.87 2.48 35.75 4.17-1.29 10.47-2.49 20.97-3.5 31.48-7.93 4.09-16.36 7.77-25.37 8.37-10.26.5-20.86-.69-30.23-5.12-8.76-4.18-14.73-12.88-16.81-22.22-2.01-9.11-1.15-18.75 1.91-27.52 3.49-9.73 11.29-18.04 21.28-21.14"/></g><g fill="#fbc90b"><path d="M638.93 15.93c10-.65 20.05-.34 30.06-1.1 5.01-.1 10.03-.13 15.05.03 10.62.87 21.32.3 31.94 1.35 84.65 4.81 168.28 26.42 244.78 62.97 83.9 39.97 159.11 97.96 219.33 168.74 50.62 59.4 90.65 127.82 117.41 201.14 32.71 89.07 45.48 185.29 37.93 279.81-6.74 87.53-31.48 173.59-71.98 251.47-33.88 65.17-78.7 124.62-132 175.15-57.93 55.03-125.89 99.53-199.6 130.38-38.01 16.03-77.59 28.22-117.9 36.92-49.27 10.39-99.71 14.98-150.03 14.42-10.29-.92-20.65-.41-30.92-1.51-90.13-5.49-179.02-30.07-259.28-71.42-109.97-56.32-203.5-144.2-266.61-250.42-41.26-69.01-69.57-145.7-83.19-224.92-13.98-81.41-12.54-165.32 3.73-246.28.11-.12.34-.34.46-.45 3.2-18.77 8.5-37.12 13.72-55.41 19.27-64.75 48.73-126.45 86.77-182.28 43.99-64.61 99.5-121.35 163.12-166.75C387.66 69.07 502.36 26.8 620.01 17.35c6.28-.77 12.62-.75 18.92-1.42m-3.44 18.71c1.11 13.66 2.52 27.31 3.21 41.01-9.72-12.03-19.5-24.01-29.14-36.09-.97-1.02-1.81-2.72-3.49-2.3-6.75.2-13.46.92-20.16 1.59 1.91 24.86 4.09 49.7 5.98 74.55 7.24-.47 14.46-1.18 21.71-1.67-.91-13.64-2.24-27.26-3.23-40.89 10.65 12.75 20.86 25.86 31.48 38.63 7.19-.69 14.39-1.24 21.59-1.77-1.94-24.84-4.1-49.67-6.08-74.51-7.33-.04-14.57 1.04-21.87 1.45m84.64.53c-9.79 1.5-18.67 7.77-23.45 16.42-3.99 7.07-5.54 15.3-5.35 23.37-.05 10.59 3.74 21.72 12.13 28.6 8.9 7.57 21.28 8.67 32.49 8.54 10.59-.04 20.69-4.13 29.56-9.65.71-1.32.5-2.95.68-4.4.35-9.25 1.26-18.45 1.62-27.7-11.79-.76-23.58-1.41-35.36-2.33-1.12 5.16-.9 10.46-1.05 15.7 5.07.12 10.12.79 15.19.97-.16 2.38-.3 4.77-.43 7.16-7.37 3.7-16.72 5.71-24.23 1.3-6.25-3.59-7.67-11.52-7.45-18.14.16-7.27 1.01-15.69 7-20.65 4.05-3.7 9.99-3.67 15.07-2.71 4.36 1.07 7.38 4.81 8.7 8.96 7.49-.64 14.93-1.89 22.45-2.33-.94-4.26-2.39-8.48-4.97-12.04-4.03-5.84-10.85-9.21-17.72-10.31-8.2-1.29-16.64-2.17-24.88-.76M424.28 84.28c-10.51 4.22-20.95 8.57-31.48 12.73 9.05 23.32 19.06 46.26 28.15 69.58 10.11-4.1 20.21-8.22 30.32-12.31 7.95-3.37 16.23-7.88 20.44-15.78 4.48-8.13 4.47-18.04 1.38-26.64-3.88-11.8-10.48-24.29-22.52-29.34-8.47-3.82-18.1-1.72-26.29 1.76m466.43 9.57c-5.6 7.31-9.38 16.01-10.94 25.08-1.87 12.02 2.82 25.39 13.3 32.13 9.34 6.06 20.42 11.19 31.83 9.46 8.47-1.29 15.38-7.01 20.62-13.49-5.39-4.64-10.76-9.31-16.33-13.73-2.48 3.21-5.32 6.39-9.14 7.98-7.09 2.11-15.77-1.7-18.25-8.83-1.48-5.78.87-11.58 3.02-16.88 2.32-5.13 4.92-10.76 10.09-13.59 6.75-3.97 16.41-.78 19.67 6.28 1.32 2.55 1.09 5.48 1.13 8.26 6.85 1.34 13.7 2.71 20.57 4.04.22-5.14.12-10.38-1.52-15.3-2.37-7.49-8.36-13.27-15.1-16.99-7.56-4.04-15.92-7.33-24.63-6.91-9.53-.14-18.6 5.04-24.32 12.49m-548.9 34.27c-10.82 2.81-20.82 9.11-27.88 17.81-6.76 8.24-8.8 19.88-5.59 30.01 2.77 9 8.28 17.08 15.16 23.45 9.16 8.36 23.11 10.9 34.57 6.07 9.95-4.19 19.47-10.61 25.2-19.96 5.57-9.12 5.61-20.81 1.17-30.39-4.3-9.18-10.39-18.04-19.23-23.35-6.93-4.27-15.5-5.35-23.4-3.64m667.78-1.15c-21.08 16.21-42.62 31.83-63.73 48.01 6.69 4.22 13.36 8.47 20.06 12.7 3.11-2.85 6.3-5.63 9.4-8.51 7.65 4.47 14.96 9.49 22.47 14.18-1.15 4.2-2.42 8.36-3.45 12.59 6.37 3.82 12.56 7.93 18.82 11.94.51.4 2.16 1.02 1.95-.31.8-4.98 2.21-9.85 2.76-14.87.11-.08.33-.24.45-.32 4.25-20.6 8.32-41.26 13.08-61.75-7.16-4.72-14.28-9.57-21.81-13.66m-356.05 1.7a570 570 0 0 0-58.64 5.5c-97.39 14.2-190.53 55.68-266.53 118.17-85.17 69.59-148.75 165.36-179.12 271.13-26.16 89.76-28.48 186.27-7.31 277.29 9.97 42.5 24.88 83.88 44.77 122.76 44.45 88.01 113.33 163.4 196.73 215.96 72.84 46.08 156.73 74.61 242.61 82.13 90.2 8.16 182.48-5.94 265.7-41.85 70.09-29.89 133.69-74.8 185.6-130.56 54.72-58.7 96.41-129.52 120.85-205.98 29.27-91.04 33.79-189.74 13.69-283.19-8.8-40.43-22.11-79.87-39.75-117.31-37.97-80.49-95.84-151.49-167.09-204.83-60.4-45.48-130.34-78.17-203.97-95.37-48.25-11.32-98.04-15.71-147.54-13.85m434.95 52.46c-17.02 18.34-34.54 36.21-51.35 54.73 13.73 12.59 27.17 25.51 40.74 38.29.82.65 1.57 1.82 2.81 1.63 4.19-4.13 8.05-8.59 12.2-12.78-8.65-8.4-17.56-16.54-26.26-24.89 6.59-7.24 13.54-14.13 20.14-21.37 5.92-6.71 12.71-12.65 18.28-19.65-5.1-5.7-10.96-10.74-16.56-15.96m-852.95 24.45c-4.86 4.13-9.46 8.68-13.04 13.98-3.84 5.76-5.95 13.16-3.88 19.97 2.24 8.29 10.6 14.76 19.31 13.98 10.09-.6 18.54-6.79 27.13-11.48 3.33-1.73 7.7-3.73 11.15-1.21 3.05 1.83 3.07 5.83 2.29 8.88-1.98 4.17-5.9 7.54-10.43 8.58-4.14.82-8.02-1.44-11.15-3.88-4.98 5.48-9.93 10.99-14.88 16.49 5.86 4.81 13.32 8.07 21.01 7.48 7.33-1.02 13.5-5.56 18.95-10.28 6.62-5.9 12.88-12.91 15.23-21.67 1.26-6.53.63-13.71-3.33-19.25-4.3-6.94-12.67-11.2-20.83-9.75-10.49 1.74-19.22 8.33-28.24 13.51-1.86 1.17-4.03 1.49-6.16 1.77-1.46-1.65-3.5-3.37-2.89-5.86 1-4.42 4.92-7.75 9.13-9.03 3.26-.8 6.27.99 9.08 2.35 4.09-4.28 7.84-8.87 11.96-13.12.81-.95 1.82-1.82 2.17-3.06-3.33-3.1-7.74-4.98-12.2-5.72-7.53-1.06-14.71 2.73-20.38 7.32m866.08 93.1c4.93 5.99 9.4 12.36 14.47 18.22 4.16-1.04 8-3.09 12.05-4.5 5.13 7.02 11.19 13.45 15.82 20.77-1.67 3.91-4.83 6.99-7.02 10.62 4.67 5.78 9.14 11.72 13.78 17.53.68 1.47 2.34.13 2.66-.87 11.78-19.54 23.73-38.97 35.57-58.47 1.35-2.63 3.74-4.98 4.31-7.85-4.92-6.72-10.24-13.14-15.35-19.7-25.34 8.38-51.02 15.73-76.29 24.25m-944.35-5.55c-3.69 4.83-7.19 9.86-9.74 15.39-4.67 9.63-4.42 21.63 1.04 30.89 4.56 8.2 12.23 14.22 20.49 18.42 10.75 5.31 24.6 5.98 34.74-1.07 8.01-5.74 13.92-14 18.31-22.73 4.39-8.61 5.56-18.44 5.42-27.99-8.81-5.96-17.46-12.15-26.34-18.01-6.69 9.78-13.35 19.58-20.21 29.24 4.18 2.92 8.14 6.44 12.76 8.56 3.74-3.29 5.27-8.86 9.28-11.84 2.01 1.02 3.78 2.43 5.62 3.73-.82 7.31-2.95 15.1-9.02 19.83-4.95 4.21-12.29 3.77-17.77.86-6.75-3.45-13.6-7.98-17.07-14.96-5.04-9.88 5.02-24.66 16.32-20.89 3.26-6.87 6.31-13.83 9.54-20.72-5.65-1.77-11.78-2.32-17.56-.91-6.67 1.81-11.68 6.94-15.81 12.2m1012.08 95.77c2.59 5.75 5.21 11.49 7.77 17.26 11.47-5.06 22.87-10.27 34.28-15.46 5.58-2.43 10.95-5.42 16.71-7.39-14.78 12.34-30.03 24.12-44.91 36.33 2.34 5 4.75 9.96 6.82 15.08 6.41-.09 12.62-1.92 18.93-2.88 12.86-2.13 25.62-4.89 38.53-6.71-16.91 8.05-34.09 15.53-51.05 23.45 2.79 5.67 5.12 11.55 8.01 17.18 22.66-10.63 45.65-20.58 68.23-31.36-4.54-8.87-8.38-18.08-12.47-27.16-2.41.17-4.79.42-7.13.92-13 2.51-26.09 4.54-39.05 7.22 2.03-2.42 4.6-4.27 7.08-6.21 9.68-7.75 19.25-15.65 29.02-23.3-3.87-9.43-8.35-18.6-12.47-27.91-22.84 10.16-45.48 20.76-68.3 30.94M96.16 395.5c12.56 5.79 25.38 11.02 37.98 16.73-16.23 3.35-32.6 6.07-48.84 9.35-3.56 6.26-5.87 13.26-9.09 19.75 22.97 10.04 45.92 20.11 68.91 30.1 2.83-6.66 5.7-13.31 8.66-19.91-12.44-5.77-25.2-10.81-37.63-16.59 16.35-3.14 32.74-6.1 49.06-9.42 2.73-6.66 5.7-13.22 8.59-19.82-22.94-9.99-45.84-20.08-68.81-30.02-2.86 6.65-5.74 13.29-8.83 19.83m1118.93 98.82c1.91 6.93 4.1 13.79 6.07 20.72 3.31 10.61 5.69 21.68 11.37 31.37 6.19 11.24 23.44 12.06 31.79 2.88 3.6-3.86 4.43-9.32 4.32-14.4 2.51 2.36 4.91 5.14 8.31 6.22 8.97 3.59 20.11-2.13 22.93-11.27 2.2-6.64.07-13.57-1.73-20.02-.11-.12-.32-.36-.43-.48-3.42-12.16-7.21-24.22-10.78-36.34-23.98 6.96-47.88 14.28-71.85 21.32M61.7 484.27c-2.13 7.39-4.11 14.83-6.42 22.17 14.41 4.14 28.87 8.08 43.29 12.18 3.68 1.04 7.5 2.89 9.38 6.41 2.2 4.1 1.31 9.18-.73 13.16-2.44 4.66-8.22 7.39-13.32 5.75-15.16-4.24-30.31-8.56-45.47-12.81-2.15 7.41-4.26 14.84-6.27 22.3 14.97 4.11 29.89 8.43 44.85 12.59 7.96 1.29 16.82 1.6 23.76-3.2 8.23-4.57 11.49-13.99 14.36-22.37 3.08-9.57 4.74-20.88-.82-29.88-4.73-8.61-14.17-13.02-23.32-15.3-13.09-3.7-26.19-7.34-39.29-11m1176.46 91.84c.49 7.89 1.22 15.76 1.91 23.63 4.16.78 8.33 1.6 12.47 2.56.37 3.22.85 6.42.94 9.67.08 5.67 1.43 11.27 1.04 16.97-4.08 1.2-8.02 2.78-11.84 4.63.81 7.81 1.36 15.64 1.98 23.47 3.87-.93 7.28-3.07 10.87-4.73 20.4-9.57 40.79-19.15 61.1-28.88.68-8.39-1.32-16.82-1.31-25.23-25.69-7.47-51.42-14.81-77.16-22.09M90.39 642.48c-18.87-1.27-37.76-2.36-56.62-3.71.02 7.77-.95 15.47-1.27 23.22 24.98 1.5 49.95 3.24 74.93 4.71 1.22-19.72 2.47-39.45 3.8-59.16-6.21-.04-12.36-1.11-18.58-1.14-.61 12.03-1.5 24.05-2.26 36.08m1146.63 125c-.97 5.6-2.34 11.12-3.65 16.66 9.25 6.88 13.3 18.37 14.06 29.51 5.44 1.5 11 2.51 16.48 3.89-.16-8.22-2.27-16.26-5.51-23.78 16.2 3.67 32.41 7.32 48.65 10.83 1.45-6.79 2.91-13.58 4.56-20.33-24.79-5.9-49.73-11.17-74.59-16.78M78.49 778.01c3.86 7.22 9.26 13.49 15.48 18.79-16.12 3.98-32.33 7.61-48.39 11.85 1.74 6.72 3.21 13.5 4.93 20.23 24.76-5.75 49.4-12.01 74.17-17.71-1.23-5.75-2.55-11.48-4.32-17.08-11.33-1.73-19.83-10.54-25.42-19.99-5.49 1.26-10.97 2.57-16.45 3.91m1155.52 61.02c-7.23.85-13.99 5.02-17.73 11.31-4.65 8.06-7.05 17.62-5.61 26.91 1.24 6.36 5.4 11.89 10.89 15.25 10.04 6.35 21.68 9.98 33.42 11.51 7.31 1 15.24-.25 21.13-4.94 6.67-5.05 9.64-13.35 11.34-21.24 1.47-6.74 1.02-14.35-3.2-20.06-4.19-5.61-10.45-9.24-16.73-12.04-10.56-4.38-21.99-7.63-33.51-6.7M115.66 851.71c4.12 11.52 8.66 22.89 12.52 34.5-10.43-3.32-21.15-6.02-32.13-6.48-10.1-.3-20.12 1.42-29.98 3.39 2.23 6.5 4.76 12.91 6.94 19.43 9.47-2.39 19.15-4.45 28.98-4.11 13.14-.3 26.27 2.95 37.9 9.04 4.37-1.59 8.74-3.19 13.12-4.77-6.64-19-13.94-37.76-20.63-56.75-5.83.99-11.24 3.6-16.72 5.75m1084.87 64.07c-7.04 1.17-13.2 5.77-16.85 11.82-3.6 5.91-6.47 12.48-6.91 19.46-.37 5.71 1.34 11.62 5.17 15.94 7.24 8.43 17.48 13.49 27.61 17.59 7.43 2.65 15.71 5.22 23.53 2.64 5.93-1.6 11.06-5.6 14.23-10.83 4.18-6.7 7.78-14.35 7.33-22.45-.06-6.61-4.22-12.35-8.88-16.68-6.52-5.83-14.37-9.95-22.32-13.43-7.28-2.68-15.06-5.41-22.91-4.06M102.52 937.83c6.02 11.13 11.59 22.51 17.38 33.76a556 556 0 0 1-12.41 6.32c2.66 5.41 5.51 10.72 8.16 16.13 4.35-1.88 8.37-4.45 12.8-6.15 1.33 2.71 2.7 5.42 4.04 8.13 4.85-2.2 9.44-4.93 14.31-7.08a65 65 0 0 0-4.27-8.6c13.72-7.04 27.49-14 41.13-21.19-3.04-5.32-5.5-10.94-8.53-16.25-19.14-3.96-38.13-8.68-57.22-12.87-5.14 2.59-10.26 5.19-15.39 7.8m1051.63 50.54c-6.32 2.88-10.68 8.57-14.59 14.09-4.19 6.05-8.06 12.95-7.71 20.56.21 7.24 4.86 13.44 10.17 17.96 4.61-5.11 8.73-10.66 13.15-15.94-2.85-3-6.29-6.63-5.34-11.15 1.06-4.05 4.68-8.1 9.22-7.6 4.96-.24 8 4.78 8.94 9.05 1.98 11.18 1.02 22.67 3.49 33.79 1.62 8.75 6.16 16.81 12.62 22.91 12.2-16.94 23.59-34.45 35.64-51.5-4.7-3.22-9.27-6.65-14.18-9.54-5.98 8.6-11.55 17.5-17.94 25.8l-.76.8c-.88-8.19-.16-16.45-1.23-24.63-.41-8.77-3.79-18.21-11.51-23.09-5.78-3.99-13.67-4.61-19.97-1.51m-972.26 12.14c3.2 6.22 7.26 11.94 10.88 17.92 3.18-1.35 6.69-3.32 10.23-2.18 5.77 1.61 9.17 9.84 4.67 14.42-3.33 3.89-9.01 3.33-13.52 2.47-9.4-2.26-18.5-5.77-28.1-7.18-9.26-1.76-18.9-.15-27.26 4.13 3.35 5.56 7.58 10.51 11.28 15.84 8.54 11.63 17.09 23.27 25.63 34.91 4.49-3.36 9-6.7 13.54-9.99-6.13-8.98-12.89-17.5-19.11-26.41 6.8.99 13.23 3.47 19.73 5.59 8.33 2.6 17.95 4.35 26.06.12 6.92-3.16 11.81-10.45 11.73-18.1.32-7.68-4.01-14.48-8.21-20.53-4.78-6.5-10.65-13.28-18.96-14.92-6.48-1.43-12.86 1.12-18.59 3.91m809.41 148.41c7.3 25.64 14.39 51.34 21.52 77.02 6.5-4.32 12.57-9.24 19.03-13.61-.9-4.25-3.02-8.13-3.87-12.38 6.7-5.58 14.08-10.33 20.98-15.66 3.4 2.53 6.65 5.3 10.23 7.61 6.79-4.35 13.05-9.51 19.65-14.16-22.3-14.52-44.49-29.22-66.87-43.61-7.2 4.4-13.73 9.94-20.67 14.79m-670.78 62.4c16.73 10.68 33.46 21.38 50.23 32.02 3.26-5.2 6.46-10.44 9.95-15.48-10.17-6.61-20.48-12.98-30.65-19.58 10.25-15.8 20.12-31.85 30.56-47.53-6.47-4.32-13.11-8.38-19.67-12.54-13.46 21.04-26.76 42.19-40.42 63.11m579.7-13.53c5.24 12.72 10.56 25.42 15.59 38.24-13.92-9.17-27.75-18.48-41.68-27.64-6.63 2.83-13.35 5.46-20 8.25 9.61 22.96 18.71 46.14 28.33 69.1 6.89-2.32 13.7-5.1 20.29-8.22-5.52-12.39-10.31-25.09-15.45-37.63 13.59 8.62 26.76 17.91 40.3 26.61 1.06.86 2.36.04 3.46-.28 5.91-2.42 11.81-4.82 17.75-7.15-9.34-23.24-18.71-46.49-28.39-69.59-6.65 2.97-13.48 5.51-20.2 8.31m-483.48 67.12c7.22 2.93 14.58 5.54 21.68 8.77 2.96-3.28 5.57-6.85 8.38-10.24 7.92 3.43 16.32 5.89 23.99 9.78.55 4.03-.68 8.54-.48 12.79 7.4 2.97 14.91 5.66 22.23 8.85.91-26.69 1.11-53.4 1.3-80.11-7.68-3.23-15.59-5.91-23.16-9.38-18.14 19.7-36.01 39.65-53.94 59.54m352.62-28.09c2.11 15.02 3.81 30.09 5.94 45.11.35 2.66.29 5.45-.85 7.95-3.89 8.44-18.16 9.68-22.79 1.3-1.75-3.11-1.96-6.75-2.36-10.19-1.78-13.67-3.51-27.34-5.23-41-7.63.95-15.25 2.01-22.89 2.85 1.23 11.43 2.85 22.81 4.26 34.21.93 6.66 1.2 13.54 3.93 19.79 3.46 9.86 13.22 17.23 23.71 17.56 9.31.31 18.86-.4 27.66-3.69 9.2-3.28 15.77-12.16 17.26-21.68 1.49-7.89-.84-15.78-1.53-23.62-1.48-10.53-2.51-21.12-4.22-31.61-7.6 1.2-15.27 1.96-22.89 3.02m-174.3 3.57c-9.99 3.1-17.79 11.41-21.28 21.14-3.06 8.77-3.92 18.41-1.91 27.52 2.08 9.34 8.05 18.04 16.81 22.22 9.37 4.43 19.97 5.62 30.23 5.12 9.01-.6 17.44-4.28 25.37-8.37 1.01-10.51 2.21-21.01 3.5-31.48-11.88-1.69-23.85-2.67-35.75-4.17-.56 5.22-1.19 10.43-1.64 15.67 5.13.29 10.21 1.06 15.33 1.51-.6 2.52.7 6.38-2.21 7.71-6.18 2.91-13.69 3.59-20.11 1.16-5.31-2.22-9.05-7.64-9.16-13.4-.41-8.15-.05-17 4.79-23.92 4.76-6.53 14.71-7.47 21.32-3.35 2.87 1.65 4.08 4.9 5.32 7.79 7.43-.58 14.88-.98 22.32-1.58-.92-5.73-3.16-11.39-7.29-15.56-4.5-4.99-11.16-7.09-17.59-8.21-9.22-1.53-18.96-2.69-28.05.2"/><path d="M420.7 104.05c5.73-2.45 12-5.21 18.31-3.25 4.17 2.09 6.72 6.27 8.71 10.32 2.1 4.47 3.97 9.11 4.83 13.99.57 3.83-.32 8.33-3.6 10.74-3.9 2.76-8.41 4.46-12.85 6.13-5.05-12.68-10.55-25.18-15.4-37.93M339.73 147.85c3.64-.83 7.8-.82 11.04 1.27 5.63 3.3 9.09 9.12 12.21 14.65 2.53 4.35 3.82 9.67 2.25 14.58-2.43 5.59-8.26 9.41-14.24 10.03-6.94.1-12.28-5.29-15.95-10.61-3.52-5.2-7.18-11.17-6.39-17.71.67-5.95 5.7-10.31 11.08-12.21M988.93 168.01c6.67-6.24 13.89-11.89 20.75-17.94-2.11 9.08-4.9 17.98-7.28 26.99-4.43-3.1-9.49-5.39-13.47-9.05M1144.02 306.55c8.55-3.75 17.42-6.72 26.03-10.33-4.89 7.89-10.6 15.25-15.73 23-3.72-4-6.69-8.59-10.3-12.67M513.39 316.85c45.25-.61 90.48-2.02 135.73-2.62-.28 1.48-.85 2.88-2.19 3.7-12.11 9.48-24.35 18.88-35.34 29.67-8.8 8.6-16.72 18.06-24.38 27.67-9.73.36-19.44.86-29.16 1.3-2.89.54-4.95-1.85-6.99-3.45-17.74-14.56-29.87-34.91-37.67-56.27M685.62 319.7c6.91-3.46 14.74-4.49 22.39-4.6 21.54-.37 43.03 1.46 64.57 1.53 28.86.5 57.73-.14 86.56-1.49-4.9 14.76-12.19 29.39-24.53 39.31-15.97 12.9-36.72 17.73-56.74 19.73-5.94.39-12.11 1.64-17.89-.3-33.27-10-63.4-29.47-98.16-34.59 3.41-3.44 7.28-6.36 10.84-9.64 4.2-3.46 7.99-7.55 12.96-9.95M640.44 354.74c17.61-1.67 36.43.45 51.58 10.24 13.9 8.74 23.56 23.26 27.79 38.99 2.19 8.07 4.9 16.99 1.17 25.04-2.91 5.73-7.07 11.27-12.97 14.13-9.43 5.17-17.01 13.38-21.98 22.87-.61 1-1.1 2.12-1.99 2.91-9.82-7.29-20.62-14.19-33-15.86-8.7-1.48-18.51 1.84-23.53 9.34-5.22 7.76-6.49 17.48-5.83 26.63 1.07 12.67 4.83 24.96 9.83 36.6.45 1.32 1.56 2.88.28 4.15-2.57-.57-4.49-2.56-6.58-4.02-14.96-11.41-26.71-27.05-33.17-44.74-6.55-17.85-7.86-37.52-4.06-56.13 5.12-26.34 20.2-50.08 39.95-67.93 3.87-1.73 8.35-1.57 12.51-2.22"/><path d="M774.01 387.61c21.55.86 43.15-3.37 62.98-11.77 4.61 12.05 9.53 24 14.2 36.04 2.9 7.27 5.97 15.57 2.95 23.3-2.51 6.36-8.95 9.8-15.03 11.99-13.34 4.66-27.63 6.34-40.54 12.26-5.87 2.67-10.92 8-11.83 14.57-1.07 7.3 7.58 13.46 14.25 10.92 7.53-1.88 15.01.88 22.21 2.84 4.74 1.5 10.12 3.74 12.09 8.72 1.75 5.78-1.92 11.18-5.45 15.41-2.27 2.34-2.34 5.77-3.36 8.69-3.03 9.26-9.81 16.63-16.94 22.99-2.59 2.38-5.92 4.25-7.19 7.73-1.82 4.27-4.12 9.47-1.71 13.97 2.73 4.44 8.55 5.12 13.3 5.48 7.06.72 13.08-4.37 20.06-4.32 1.43-.15 2.7.79 3.49 1.92 1.36 4.7-1.45 9.27-4.51 12.61-2.24 2.51-5.8 3.87-7.06 7.18-2.1 5.15.91 10.54.01 15.83-.54 5.2-2.56 10.86-7.33 13.6-5.97 3.47-13.29 2.41-19.73 1.07-28.46-6.83-55.99-17.32-82.14-30.41-7.37-3.59-14.38-7.87-21.94-11.06-7.12-3.28-13.18-11.13-10.92-19.28 4.1-12.52 6.35-25.79 5.36-38.98-.39-4.79-1.82-10 .34-14.55.95-2.45 4.15-2.38 5.97-.94 9.61 6.39 14.59 18.28 14.13 29.62.19 4.67-1.17 10.17 2.28 14.01 2.69 3.28 7.31 3.09 11.13 2.63 4.17-.53 7.53-4.45 7.54-8.63.68-7.8-1.88-15.33-4.22-22.64-2.05-6.61-5.58-12.66-7.3-19.38-2.35-8.38-2.54-17.69 1.26-25.68 3.97-8.52 11.41-14.68 18.72-20.27 8.05-6.65 13.27-17.28 12.01-27.82-1.96-15.17-10.81-28.09-16.15-42.13 12.9 2.31 25.9 4.65 39.07 4.48M548.54 389.46c9.84-1.11 19.75-.93 29.64-1.22-6.9 17.9-12.55 36.51-13.88 55.75-2.09 22.93 2.51 46.22 12.41 66.96-19.97-.51-40.04-1.54-59.65-5.61-11.63-2.5-23.16-6.03-33.59-11.85-5.83-3.24-10.41-9.64-9.62-16.53.78-4.57 2.42-9.14 5.43-12.73 23.1-24.91 46.21-49.82 69.26-74.77"/><path d="M803.29 468.27c12.77-8.52 27.96-13.46 43.32-13.83-4.42 6.01-8.4 12.35-12.99 18.22-3.02.13-5.85-2.36-9.01-1.93-4.32.32-6.07 6-10.6 5.63-4.71-.85-9.87-1.31-13.75-4.36.91-1.31 1.64-2.84 3.03-3.73M848.54 465.53c1.7-2.98 6.28-3.22 8.39-.57 2 2.56 2.39 5.94 3.6 8.9 4.81 12.82 9.84 25.73 17.53 37.15 2.24 3.19 2.97 7.3 2.15 11.1-1.47 4.19-5.93 6.26-10.09 6.63-3.46.76-6.58-2.11-10.03-1.22-3.44.76-7.08 2.17-10.55.74-3.55-1.52-8.27-2.14-9.91-6.16-1.41-7.07 5.55-14.02 12.66-12.72 2.15-6.41 2.29-13.72-.97-19.79-2.44-4.55-5.78-9.18-5.41-14.6.49-3.23.98-6.6 2.63-9.46M646.33 467.41c5.13-1.48 10.7-.78 15.85.33 5.19 1.27 9.98 4.98 11.41 10.29 1.87 7.13.29 14.74-2.22 21.51-2.09 1.88-5.27 2.59-7.97 1.87-3.65-1.72-5.03-6.28-3.69-9.95.57-3.15 2.03-8.21-1.65-9.9-6.09-.67-10.72 5.89-10.61 11.5.03 7.42 6.17 12.85 11.93 16.58 3.46 2.55 8.95 1.91 11.08 6.2 2.54 5.25.25 11.18-1.28 16.38-.93 4.37-5.91 7.53-10.17 5.63-7.58-3.2-12.31-10.5-16.43-17.27-5.98-10.73-10.19-23.09-8.95-35.5.63-7.63 5.47-14.87 12.7-17.67M1265.41 503.83c4.57-1.43 9.17-2.79 13.73-4.27 1.21 5.46 4.09 10.73 3.6 16.44-.63 3.33-4.14 4.54-6.98 5.31-1.86-.67-4.05-.99-5.15-2.82-2.85-4.41-3.45-9.8-5.2-14.66M1237.21 512.19c4.91-1.49 9.78-3.14 14.8-4.21 1.08 5.78 3.76 11.19 4.24 17.1.03 4.59-4.82 7.97-9.14 6.79-3.34-.69-5.05-3.98-6.05-6.91-1.4-4.22-2.56-8.52-3.85-12.77M477 516.03c-1.02-1.05-1.42-4.35.91-3.51 34.3 10.72 70.11 16.78 106.08 17.02 2.07.07 4.55-.34 5.96 1.61 10.58 10.66 21.37 21.16 31.81 31.95-.94 8.18-4.96 15.77-6.62 23.85 4.82 6.97 10.93 13.01 16.67 19.24 20.18 20.89 43.43 38.56 67.79 54.27 3.84 2.51 7.9 4.71 11.48 7.61-3.41 1.92-7.42 1.11-11.13 1.37-33.62.88-67.3 1.74-100.87 2.53-8.59-6.27-16.15-13.88-23.87-21.17-39.83-39.2-71.31-86.02-98.21-134.77M846.83 535.84c3.08-1.28 6.62-.92 8.7 1.89-2.41 4.93-4.51 10.01-6.75 15.02-6-.37-12.04.3-17.77 2.15-3.44.95-6.95 2.96-10.56 1.54.04-1.95-.48-4.28 1.32-5.64 7-6.89 15.72-11.98 25.06-14.96"/><path d="M644.06 560.38c29.62 25.9 62.69 48.15 99.02 63.49 14.59 6.27 29.59 11.59 44.89 15.82-7.03 11.52-14.69 22.64-21.93 34.03-27.78-12.31-55.15-25.94-80.12-43.37-15.95-11.13-30.89-23.9-43.22-39.01-1.5-2.08-4.13-4-3.52-6.89 1.26-8.09 3.55-15.98 4.88-24.07M1269.23 606.06c9.1 1.83 18.2 3.73 27.22 5.95-8.51 3.77-17.31 6.85-25.89 10.47-.3-5.49-1.08-10.93-1.33-16.42M1229.34 859.51c6.73-2.54 13.97.31 20.59 1.95 7.01 2.38 14.78 4.05 20.33 9.29 3.86 3.36 3.17 10.59-1.64 12.74-6.09 2.5-12.76.19-18.81-1.28-7.72-2.45-15.99-4.47-22.34-9.75-4.31-3.41-3.09-10.85 1.87-12.95M1198.6 934.75c6.17-.97 11.97 2.14 17.5 4.43 6.88 3.36 14.23 6.44 19.65 12.03 3 2.9 3.77 8.08.74 11.25-2.47 3.14-6.9 2.42-10.39 2.15-7.15-1.59-13.68-5.13-20.14-8.45-4.73-2.74-10.06-5.33-12.88-10.25-2.26-4.41.73-10.21 5.52-11.16M125.24 946.49c10.02 2.22 20.01 4.56 30.01 6.88-6.98 3.57-13.85 7.39-20.97 10.7-3.11-5.81-5.98-11.75-9.04-17.58M1013.12 1157.73c7.49 5.33 14.95 10.76 22.08 16.57-4.35 3.17-8.69 6.36-13.04 9.53-3-8.71-6.28-17.33-9.04-26.1M457.27 1250.14c5.84-7.32 11.68-14.65 17.46-22.02-.56 9.33-1.33 18.65-2.21 27.96-5.15-1.81-10.16-3.98-15.25-5.94"/></g><path fill="#ab0917" d="M648.59 141.94c81.22-4.08 163.38 10.35 238.14 42.46 94.65 40.47 177.05 108.94 234.19 194.57 49.12 72.99 79.53 158.39 87.71 245.98 1.92 15.96 1.84 32.05 2.62 48.09-.24 50.39-6.58 100.9-20.47 149.41-21.32 74.98-59.37 145.09-110.52 203.89-48.71 56.11-109.14 102.04-176.41 133.62-81.81 38.72-173.64 55.76-263.89 49.63-85.47-5.58-169.53-32.12-242.56-76.91-84.36-51.26-153.96-126.41-198.69-214.4-34.31-67.24-53.97-141.89-57.31-217.29-.54-13.97-1.35-27.98-.27-41.94 2.3-82.07 24.17-163.49 63.1-235.77 29.3-54.43 68.06-103.73 114.06-145 71.13-64.08 159.78-108.63 253.81-126.85 25.24-4.92 50.82-8.15 76.49-9.49M362.74 276.58c-5.74 22.21-13.27 44.84-28.52 62.48-12 14.46-29.57 24.02-48.21 26.33-3.16.25-6.3.68-9.39 1.32.13 149.43.02 298.86.05 448.28.25 4.98 1.86 9.75 2.92 14.6 9.77 39.01 27.81 75.53 49.65 109.13 36.39 55.32 84.12 102.78 138.04 141.03 63.77 45.23 136.54 77.4 212.52 95.56 1.77.48 3.63.42 5.44.05 38.52-7.6 76.23-19.6 111.92-36 64.3-29.23 121.86-72.85 168.04-126.24 49.21-56.6 85.53-123.75 109.5-194.65 1.02-3.41.53-7.01.62-10.5-.04-147.02.04-294.03-.04-441.05-14.44-4.4-28.87-9.48-41.72-17.55-12.27-7.71-23.08-18.19-29.85-31.12-6.77-12.8-9.43-27.31-10.34-41.64-210.21-.02-420.42.05-630.63-.03"/><g fill="#fff"><path d="M368 283.79c206.39 0 412.78-.01 619.18 0 .75 13.63 4.67 27.13 11.21 39.11 7.29 13.38 18.55 24.32 31.45 32.29 11.92 7.38 25 12.78 38.39 16.85.01 144.83-.02 289.65.01 434.47-.82-.09-2.47-.28-3.3-.38-2-.48-4.05-.75-6.06-1.04a620 620 0 0 1-39.77-8.66c-13.81-3.38-27.43-8.4-39.16-16.58-3.51-2.68-6.04-6.61-10.1-8.53-4.13-2.06-8.13-4.54-11.24-7.98-2.73-2.92-4.92-6.51-8.55-8.42-11.55-6.71-24.99-9.01-38.02-10.93-6.05-1.3-12.04-2.82-18.07-4.12-5-.98-9.2-4.05-13.44-6.65-6.65-4.48-13.37-9.13-18.52-15.35-2.22-3.28-2.46-7.63-5.34-10.5-2.95-3.57-7.87-3.92-11.51-6.43-1.9-1.24-3.88-2.31-5.89-3.34-5.08-.67-10.2.33-15.27-.3-3.9-1.61-8.12-3.98-12.43-2.57-5.93 1.79-8.93 8.77-15.5 9.06-6.28.99-11.93-2.48-16.66-6.17-5.27-4.05-11.53-8.1-18.49-7.26-4.68.47-7.47 5.02-11.95 6.04-3.01.45-6.23.54-9.03-.79-7.97-.66-15.96.24-23.82 1.47-3.1.47-6.14 1.16-9.19 1.8-8.17 2.03-16.3 4.18-24.38 6.53-4.27 1.26-7.94 4.26-12.47 4.67-2.2.29-4.19-.85-6.26-1.34-8.07-1.28-16.31.49-23.7 3.78-7.35 2.26-14.97-.74-21.25-4.52-8-3.94-16.07-7.74-24.03-11.76-2.42-1.23-4.95-2.4-7.66-2.75-8.23-.85-16.96-.49-24.41 3.46-16.3 10.88-32.57 21.81-48.87 32.69-8.58 7.04-20 9.45-30.88 8.42-4.48-.68-9.3.42-12.9 3.23-3.57 2.65-5.95 6.71-9.94 8.85-3.5 2.15-7.79 1.95-11.5 3.59-8.18 3.28-16.99 4.49-25.68 5.55-6.31.44-12.92 2.37-19.05-.04-8.64-2.85-18.21-.08-25.04 5.62-5.84 5.11-13.02 8.31-20.38 10.57-5.98.85-12.06.67-18.07 1.18-4.57.43-7.71 4.04-10.21 7.52-5.46 1.68-10.18 5-14.25 8.92-4.97 2.66-10.96 2.96-15.8 5.97-4.72 2.99-6.87 8.5-11.19 11.93-1.61 1.28-3.5 2.14-5.34 3.03-.09-147.03 0-294.06-.09-441.08 17.5-1.84 34.44-8.93 47.55-20.73 11.68-10.41 20.19-23.87 26.54-38.06 4.3-9.79 7.74-19.95 10.33-30.32m145.39 33.06c7.8 21.36 19.93 41.71 37.67 56.27 2.04 1.6 4.1 3.99 6.99 3.45 9.72-.44 19.43-.94 29.16-1.3 7.66-9.61 15.58-19.07 24.38-27.67 10.99-10.79 23.23-20.19 35.34-29.67 1.34-.82 1.91-2.22 2.19-3.7-45.25.6-90.48 2.01-135.73 2.62m172.23 2.85c-4.97 2.4-8.76 6.49-12.96 9.95-3.56 3.28-7.43 6.2-10.84 9.64 34.76 5.12 64.89 24.59 98.16 34.59 5.78 1.94 11.95.69 17.89.3 20.02-2 40.77-6.83 56.74-19.73 12.34-9.92 19.63-24.55 24.53-39.31-28.83 1.35-57.7 1.99-86.56 1.49-21.54-.07-43.03-1.9-64.57-1.53-7.65.11-15.48 1.14-22.39 4.6m-45.18 35.04c-4.16.65-8.64.49-12.51 2.22-19.75 17.85-34.83 41.59-39.95 67.93-3.8 18.61-2.49 38.28 4.06 56.13 6.46 17.69 18.21 33.33 33.17 44.74 2.09 1.46 4.01 3.45 6.58 4.02 1.28-1.27.17-2.83-.28-4.15-5-11.64-8.76-23.93-9.83-36.6-.66-9.15.61-18.87 5.83-26.63 5.02-7.5 14.83-10.82 23.53-9.34 12.38 1.67 23.18 8.57 33 15.86.89-.79 1.38-1.91 1.99-2.91 4.97-9.49 12.55-17.7 21.98-22.87 5.9-2.86 10.06-8.4 12.97-14.13 3.73-8.05 1.02-16.97-1.17-25.04-4.23-15.73-13.89-30.25-27.79-38.99-15.15-9.79-33.97-11.91-51.58-10.24m133.57 32.87c-13.17.17-26.17-2.17-39.07-4.48 5.34 14.04 14.19 26.96 16.15 42.13 1.26 10.54-3.96 21.17-12.01 27.82-7.31 5.59-14.75 11.75-18.72 20.27-3.8 7.99-3.61 17.3-1.26 25.68 1.72 6.72 5.25 12.77 7.3 19.38 2.34 7.31 4.9 14.84 4.22 22.64-.01 4.18-3.37 8.1-7.54 8.63-3.82.46-8.44.65-11.13-2.63-3.45-3.84-2.09-9.34-2.28-14.01.46-11.34-4.52-23.23-14.13-29.62-1.82-1.44-5.02-1.51-5.97.94-2.16 4.55-.73 9.76-.34 14.55.99 13.19-1.26 26.46-5.36 38.98-2.26 8.15 3.8 16 10.92 19.28 7.56 3.19 14.57 7.47 21.94 11.06 26.15 13.09 53.68 23.58 82.14 30.41 6.44 1.34 13.76 2.4 19.73-1.07 4.77-2.74 6.79-8.4 7.33-13.6.9-5.29-2.11-10.68-.01-15.83 1.26-3.31 4.82-4.67 7.06-7.18 3.06-3.34 5.87-7.91 4.51-12.61-.79-1.13-2.06-2.07-3.49-1.92-6.98-.05-13 5.04-20.06 4.32-4.75-.36-10.57-1.04-13.3-5.48-2.41-4.5-.11-9.7 1.71-13.97 1.27-3.48 4.6-5.35 7.19-7.73 7.13-6.36 13.91-13.73 16.94-22.99 1.02-2.92 1.09-6.35 3.36-8.69 3.53-4.23 7.2-9.63 5.45-15.41-1.97-4.98-7.35-7.22-12.09-8.72-7.2-1.96-14.68-4.72-22.21-2.84-6.67 2.54-15.32-3.62-14.25-10.92.91-6.57 5.96-11.9 11.83-14.57 12.91-5.92 27.2-7.6 40.54-12.26 6.08-2.19 12.52-5.63 15.03-11.99 3.02-7.73-.05-16.03-2.95-23.3-4.67-12.04-9.59-23.99-14.2-36.04-19.83 8.4-41.43 12.63-62.98 11.77m-225.47 1.85c-23.05 24.95-46.16 49.86-69.26 74.77-3.01 3.59-4.65 8.16-5.43 12.73-.79 6.89 3.79 13.29 9.62 16.53 10.43 5.82 21.96 9.35 33.59 11.85 19.61 4.07 39.68 5.1 59.65 5.61-9.9-20.74-14.5-44.03-12.41-66.96 1.33-19.24 6.98-37.85 13.88-55.75-9.89.29-19.8.11-29.64 1.22m254.75 78.81c-1.39.89-2.12 2.42-3.03 3.73 3.88 3.05 9.04 3.51 13.75 4.36 4.53.37 6.28-5.31 10.6-5.63 3.16-.43 5.99 2.06 9.01 1.93 4.59-5.87 8.57-12.21 12.99-18.22-15.36.37-30.55 5.31-43.32 13.83m45.25-2.74c-1.65 2.86-2.14 6.23-2.63 9.46-.37 5.42 2.97 10.05 5.41 14.6 3.26 6.07 3.12 13.38.97 19.79-7.11-1.3-14.07 5.65-12.66 12.72 1.64 4.02 6.36 4.64 9.91 6.16 3.47 1.43 7.11.02 10.55-.74 3.45-.89 6.57 1.98 10.03 1.22 4.16-.37 8.62-2.44 10.09-6.63.82-3.8.09-7.91-2.15-11.1-7.69-11.42-12.72-24.33-17.53-37.15-1.21-2.96-1.6-6.34-3.6-8.9-2.11-2.65-6.69-2.41-8.39.57m-202.21 1.88c-7.23 2.8-12.07 10.04-12.7 17.67-1.24 12.41 2.97 24.77 8.95 35.5 4.12 6.77 8.85 14.07 16.43 17.27 4.26 1.9 9.24-1.26 10.17-5.63 1.53-5.2 3.82-11.13 1.28-16.38-2.13-4.29-7.62-3.65-11.08-6.2-5.76-3.73-11.9-9.16-11.93-16.58-.11-5.61 4.52-12.17 10.61-11.5 3.68 1.69 2.22 6.75 1.65 9.9-1.34 3.67.04 8.23 3.69 9.95 2.7.72 5.88.01 7.97-1.87 2.51-6.77 4.09-14.38 2.22-21.51-1.43-5.31-6.22-9.02-11.41-10.29-5.15-1.11-10.72-1.81-15.85-.33M477 516.03c26.9 48.75 58.38 95.57 98.21 134.77 7.72 7.29 15.28 14.9 23.87 21.17 33.57-.79 67.25-1.65 100.87-2.53 3.71-.26 7.72.55 11.13-1.37-3.58-2.9-7.64-5.1-11.48-7.61-24.36-15.71-47.61-33.38-67.79-54.27-5.74-6.23-11.85-12.27-16.67-19.24 1.66-8.08 5.68-15.67 6.62-23.85-10.44-10.79-21.23-21.29-31.81-31.95-1.41-1.95-3.89-1.54-5.96-1.61-35.97-.24-71.78-6.3-106.08-17.02-2.33-.84-1.93 2.46-.91 3.51m369.83 19.81c-9.34 2.98-18.06 8.07-25.06 14.96-1.8 1.36-1.28 3.69-1.32 5.64 3.61 1.42 7.12-.59 10.56-1.54 5.73-1.85 11.77-2.52 17.77-2.15 2.24-5.01 4.34-10.09 6.75-15.02-2.08-2.81-5.62-3.17-8.7-1.89m-202.77 24.54c-1.33 8.09-3.62 15.98-4.88 24.07-.61 2.89 2.02 4.81 3.52 6.89 12.33 15.11 27.27 27.88 43.22 39.01 24.97 17.43 52.34 31.06 80.12 43.37 7.24-11.39 14.9-22.51 21.93-34.03-15.3-4.23-30.3-9.55-44.89-15.82-36.33-15.34-69.4-37.59-99.02-63.49M470.88 1038.11c11.59-3.49 23.98-2.74 35.59.28 12.15 3.19 23.7 8.36 34.76 14.27 11.89 6.15 25.38 8.97 38.74 8.49 15.38-.6 30.42-4.47 44.97-9.27 9.13-2.81 17.94-6.56 27.07-9.38 24.05-6.52 49.43-.62 71.93 8.67 4.57 1.87 8.97 4.15 13.49 6.15 10.59 4.15 22.21 4.62 33.46 4.13 19.06-1.08 37.78-5.28 56.14-10.33 7.28-1.91 14.35-4.72 21.86-5.7 7.64-1.19 15.53-1.12 23.07.68 5.42 1.75 10.65 4.05 15.96 6.14 1.39.5 2.77 1.04 4.18 1.57 5.4 2.12 10.81 4.24 16.24 6.32-9.96 8.81-20.49 16.98-31.26 24.78-10.47-5.03-22.26-9.55-34-6.64-26.23 8.1-53.42 15.58-81.14 13.88-10.5-1.31-20.94-3.23-31.06-6.35-11.76-3.37-23.16-7.84-34.97-11.01-10.65-3.07-22.24-3.84-33-.95-5.6 1.47-11.24 2.74-16.86 4.13-19.24 4.8-38.57 9.26-57.82 14.05-6.63 1.76-13.38 3.08-20.25 3.23-20.36-1.75-39.47-10.09-57.13-19.95-6.14-4-13.55-6.12-20.87-5.58-3.89.69-7.38 2.69-11.03 4.12-2.15.67-4.71 2.88-6.85 1.07-9.07-6.51-18.03-13.18-26.8-20.08-.72-.68-1.73-1.14-2.05-2.1 8.96-5.31 17.39-11.95 27.63-14.62M644.08 1115.1c9.44-3.26 18.9-6.78 28.86-8.04 9.3-1.3 18.83-.44 27.86 2.11 12.7 3.76 25.48 7.29 38.28 10.73 1.31.37 2.63.67 3.97 1.03 17.49 4.54 35.08 8.82 52.94 11.61-18.21 8.21-36.75 15.7-55.82 21.67-2.25.56-4.73 2.14-6.92.62-17.3-9.18-36.81-14.46-56.44-14.04-5.98.6-11.99.82-17.89 2.07-10.67 2.23-21.01 5.85-30.88 10.48-21.65-6.89-42.67-15.65-63.36-25.03 19.22-1.08 38.43-3.17 57.23-7.38 4.3-.94 8.58-2.01 12.84-3.13 3.13-.83 6.22-1.81 9.33-2.7"/></g><g fill="#b6b295"><path d="M541.38 808.6c1.41-.25 4.16-2.27 4.3.54-7.89 8.24-16.29 16.15-22.88 25.54-.94 2.89-.84 7.16-4.96 7.29-.85 1-1.71 1.99-2.55 3.02 3.76.89 5.12 4.38 5.33 7.9-3.13-.26-4.65-3.33-7.13-4.54-2.92 4.54-5.49 9.32-7.83 14.19-.96 1.24.17 2.34.74 3.48-.7 1.73-2.25 2.83-3.74 3.83-1.84 1.46-1.62 3.8-1.3 5.91-.46.23-1.36.71-1.81.95-2.32 6.59-4.74 13.18-6.03 20.07 3.07-7.6 6.66-15.01 11.24-21.82-.94-.88-3.21-1.1-2.6-2.79 1.22-1.59 3.31-.87 4.99-.78.6-.9 1.23-1.76 1.79-2.68-.54-.26-1.62-.79-2.16-1.05 1.67-3.78 6.58-2.9 8.95-5.9 5.35-5.21 11.16-10.06 17.74-13.67-.01 1.23.35 2.68-.66 3.66-3.23 4.26-6.27 8.65-9.11 13.18 1.66-.2 3.33-.36 5.01-.51-1.37 3.24-4.13 5.7-7.84 4.9-.16.38-.48 1.13-.63 1.51.58 1.2 1.22 2.38 1.93 3.54-.96-.01-2.89-.02-3.86-.02-1.28 2.61-2.81 5.11-3.78 7.87.25 2.37 2.68 4.29 1.9 6.84-.72 1.66-2.4 2.57-3.69 3.74a85 85 0 0 1-.85-5.63c.01 2.93-1.19 5.59-2.76 8.01 3.9.73 5.85 4.28 5.64 8.04-2.78-.88-4.94-2.84-6.89-4.92-3.93 13.65-7.18 27.81-6.58 42.09 5.21-15.42 12-30.45 21.69-43.6-.81-1.25-2.09-2.14-3.01-3.26-.45.49-.89.99-1.33 1.5 1.24 1.74 1.24 3.81 1.06 5.84-2.9-1.8-6.2-3.91-6.57-7.65.98.1 2.93.28 3.91.38.84-1.11 1.78-2.46 1.09-3.94 1.65.28 3.91-.59 4.88 1.26.8 1.34 1.24 2.86 1.83 4.32.26-.5.78-1.51 1.04-2.01-1.12-1.97-1.84-4.09-1.78-6.35-.37-.12-1.1-.37-1.47-.49-.6.78-1.21 1.58-1.8 2.38l-3.66.48c-.06-3.87 2.62-6.52 5.48-8.65.08.87.26 2.61.35 3.48 2.13-1.93 4.71-3.24 7.56-3.71-.85 2.47-1.9 4.94-3.95 6.68 1.12.98 2.25 1.98 3.38 2.98.17-1.18.34-2.35.52-3.51 4.3 1.28 5.83-3.46 8.61-5.48 2.9-2.27 6.5.35 9.7-1.27.59 1.01 1.2 2.02 1.83 3.04-1.25 2.61-3.13 5.71-6.54 4.68 3.56 1.84 3.7 5.88 2.89 9.37-2.54-1.97-4.49-4.56-5.11-7.75-.31 2.13-.62 4.26-.96 6.4-.95-.65-1.9-1.31-2.84-1.95-18.92 21.21-33.09 48.65-31.6 77.74 8.19 1.47 16.19 4.34 24.54 4.81 45.07-.39 90.15-.52 135.22-.87.12-19.23.11-38.45.3-57.67 10.86.12 21.71 0 32.57.12.1-6.44.11-12.88-.02-19.31 6.72-.17 13.44-.11 20.16-.06-.08 6.39.07 12.79-.12 19.2 4.22.17 8.45.17 12.68.01-.07-5.23-.26-10.48.02-15.7 5.48-.71 11.05-.11 16.57-.28-.05 5.36-.01 10.72-.05 16.09 7.67.01 15.34-.01 23.02-.01.01-20.46-.02-40.93.12-61.39 26.56-.91 53.15-.28 79.73-.5 0 20.64-.01 41.28-.08 61.92 15.88.03 31.76.01 47.63.06 0-30.67-.1-61.34-.02-92.01 17.6-.08 35.2.14 52.79.02.38 15.57.05 31.15.11 46.72 7.63 0 15.27.07 22.9.07-.08-20.31-.13-40.62-.1-60.93 31.4.05 62.82-.36 94.23-.18.02 5.11-2.1 9.81-3.73 14.55-25.83 72.33-64.76 140.51-117.46 196.66-2.18 2.2-4.1 4.7-6.61 6.55-24.02-1.59-48.2-5.04-70.82-13.6-5.18-2.01-10.5-3.72-16.03-4.37-12.43-1.97-24.97 1.46-36.26 6.5-21.75 7.02-44.98 10.3-67.77 7.71-18.69-1.88-36.98-7.24-53.85-15.46-12.86-5.7-27.56-5.92-41.13-2.94-11.13 2.67-22.03 6.31-32.67 10.5-21.07 7.81-44.12 11.41-66.41 7.52-14.16-2.32-27.65-7.71-40.06-14.8-14.38-7.97-32.43-10.76-47.75-3.78-17.6 9.14-37.44 13.28-57.17 13.81-2.03-.11-4.55.62-6.06-1.12-16.1-15.57-31.17-32.2-45.16-49.69 16.64-2.15 33.46-2.13 50.22-2.29 11.45.49 23.02-.19 34.38 1.59 2.26-4 .75-8.64-.32-12.76-3-10.43-7.57-20.31-12.09-30.14-5.55-11.22-11.22-22.42-17.8-33.07-1.65-2.82-5.59-5.43-8.67-3.2-3.54 2.57-5.07 6.85-6.86 10.66-.41-.31-1.24-.93-1.65-1.24.14-6.43.55-13.32 3.88-18.99 1.76-3.18 5.68-4.57 9.04-3.16 5.84 2.47 10 7.51 13.9 12.32 8.27 10.67 15.09 22.41 21.12 34.46.12-.5.24-.99.37-1.46-4.56-15-11.3-29.33-20.34-42.16-1.19-1.44-1.78-3.2-1.96-5.02 7.25 1.39 13.42 6.17 17.94 11.84-8.4-15.46-20.64-28.5-33.97-39.83-1.11-.91-1.64-2.1-1.58-3.57 15.08 4.47 29.47 12.35 40.12 24.08 9.46 10.18 15.66 22.9 20.25 35.9 1.51 4.18 2.3 8.64 4.38 12.62.34-7.09 2.29-13.96 3.26-20.94-.15-.51-.47-1.54-.63-2.05 2.65-2.07 2.77-5.67 2.51-8.73.35.04 1.05.13 1.39.17-1.93-2.76-1.48-6.03-.72-9.09.82.49 1.66.99 2.5 1.5 5.79-17.29 14.38-34.06 27.58-46.87 9.91-9.82 22.36-16.65 35.37-21.42M453.75 818.65c3.15 1.69 6.17 4.1 6.68 7.9-1.64-.23-3.89.67-4.96-1.06-1.75-1.83-1.61-4.51-1.72-6.84"/><path d="M461.25 818.96c2.85 2.09 5.62 4.94 5.46 8.77-1.98-.34-4.52-.54-5.33-2.72-.51-1.98-.17-4.05-.13-6.05M435.26 821.52c3.65-.26 7.73.17 9.81 3.62-1.65.56-3.31 1.53-5.13 1.2-2.24-.78-3.36-3.05-4.68-4.82M444.05 821.44c3.48-.34 7.03.26 9.68 2.7-1 1.12-2.05 2.57-3.79 2.2-2.9.05-4.32-2.99-5.89-4.9M466.7 821.55c1.63-1.21 2.64 1.17 3.73 1.99 1.82 1.53 1.18 4.05 1.31 6.12-1.33-.55-2.66-1.1-3.98-1.64-.76-2.08-1.68-4.22-1.06-6.47M427.15 823.13c3.56-.25 8.5-.39 9.51 4.02-1.9.17-3.83.73-5.73.32-1.5-1.24-2.61-2.83-3.78-4.34M419.74 824.25c3.4-.16 7.25.08 9.33 3.21l-1.89 1.57c.92.69 1.86 1.37 2.83 2.04-2.25 2.77-5.46 4.35-8.97 4.81.71-2.37 2.01-4.44 3.83-6.08-2.12-1.44-4.01-3.22-5.13-5.55M473.24 825.63c2.46 1.16 6.42 4.24 4.54 7.24-1.19.38-2.39.39-3.59.02-1.35-2.15-.83-4.88-.95-7.26M436.03 833.82c.87-2.25 1.54-5.04 4.02-6.06 1.64-1.08 3.57.12 4.85 1.21-2.19 2.81-5.36 4.41-8.87 4.85M443 833.83c1.02-2.14 1.94-4.56 4.07-5.87 1.65-.87 3.36.36 4.94.79-1.93 3.17-5.27 5.1-9.01 5.08M452.01 834.01c.46-2.36.69-5.24 2.95-6.63q2.325-.225 4.68-.18c-.68 3.9-4.32 5.59-7.63 6.81"/><path d="M411.56 831.64c2.55-2.57 6.38-3.12 9.29-.77-1.75 3.72-6.08 2.77-9.43 2.49.03-.43.11-1.29.14-1.72M428.16 834.73c1.26-2.35 2.34-5 4.69-6.47 1.46.26 2.88.73 4.25 1.39-1.84 3.23-5.24 5.08-8.94 5.08M457.83 835.64c.44-2.68.98-6.22 4.06-7.07.95-.02 2.85-.05 3.8-.07-.93 3.89-4.31 5.99-7.86 7.14M479.82 837.64c-1.89-2.78-1.51-6.63.83-9.01 1.44 2.97 3.46 6.83.86 9.8-1.59 3.69-5.82 4.36-9.4 4.25 1.61-2.8 3.91-6.33 7.71-5.04M536.62 831.71c2.1-1.73 4.57-2.86 7.19-3.57-.72 2.06-1.13 4.39-2.7 6.04-1.54.78-3.35.44-5 .62q.24-1.56.51-3.09M466.74 830.6c1.45-.35 2.96-.06 4.45-.02-.89 3.68-4.25 6.19-7.97 6.33.82-2.24 1.2-5.06 3.52-6.31M541.77 835.77c.03-4.26 4.3-6.01 7.88-6.65-.68 1.77-1.11 3.74-2.31 5.26-1.28 1.78-3.72 1.09-5.57 1.39M523.5 835.58c.85-2.3 3-3.66 4.87-5.05.03 1.36.05 2.74.05 4.13 1.73-2.56 4.52-3.88 7.45-4.64.24 2.85-1.57 4.92-3.46 6.75 3.17 1.83 2.4 5.6 2.21 8.66-3.52-1.96-4.63-5.71-5.41-9.36-1.72 1.02-2.99 3.15-5.18 3.04-1.98-.37-.8-2.3-.53-3.53M548.48 837.13c-1.03-4.11 5.04-5.05 7.95-5.18-.91 3.37-4.1 7.27-7.95 5.18"/><path d="M469.07 840.14c-.29-3.59 2.65-8.93 6.76-6.1.52 3.49-4.12 4.87-6.76 6.1M483.38 837.27c.97-1.62 2.47-2.81 3.8-4.1.46 3.53 1.24 8.44-2.92 10.08-.64-1.9-1.72-3.98-.88-5.98M554.06 837.82c2.65-2.48 6.59-1.88 9.5-.22 1.02 1.62-1.78 1.78-2.67 2.49-2.6 1.56-4.97-.7-6.83-2.27M536.05 836.02c1.73.25 3.23.94 4.51 2.08.52 2.3.25 4.67.18 7.01-3.04-2.04-5.04-5.34-4.69-9.09M541.73 836.5c1.37.51 3.04.56 4.21 1.57 1.78 2.02.89 4.87.8 7.29-3.18-1.77-5.37-5.13-5.01-8.86M547.8 837.4c1.77.5 4.21.74 4.9 2.8 1.21 2.01.08 4.25-.38 6.31-2.59-2.38-5.01-5.35-4.52-9.11M487.22 841.67c1.81-1.13 3.68-2.13 5.63-2.96-.34 3.49-1.38 7.99-5.63 8.42q-.03-2.745 0-5.46M524.09 840.04c4.34-2.86 6.34 3.41 6.36 6.7-2.78-1.37-5.96-2.86-6.94-6.07zM562.21 840.99c3.17-2.32 6.96-1.1 10.25.23-1.57 1.36-3.26 2.78-5.43 2.95-2.15.02-3.45-1.85-4.82-3.18M555.05 841.24c1.66.6 3.89.68 4.82 2.49 1.29 1.8.53 4.18.72 6.24-3.08-1.94-6.26-4.65-5.54-8.73M474.94 847.69c1.24-1.69 2.16-3.84 4.11-4.86 1.68-.83 3.48.26 5.16.56-1.4 3.83-5.64 4.66-9.27 4.3M518.9 842.8c4.76-1.11 6.99 3.42 6.97 7.42-3.49-1.05-6.73-3.51-6.97-7.42M561.6 843.7c1.57.54 3.63.55 4.63 2.15 1.43 1.83.88 4.28.96 6.44-3.21-1.72-6.19-4.6-5.59-8.59M570 845.95c1.28-3.73 6.6-1.2 9.33-.37-2.19 2.9-7.57 4.38-9.33.37M478.88 852.57c1.11-1.92 2.02-4.19 4.1-5.25 1.63-.11 3.27-.08 4.91.07-.37 4.5-5.45 5.19-9.01 5.18M567.97 848.06c1.82.4 4.36-.12 5.12 2.14.95 1.82.44 4.01.69 6-3.03-1.7-5.98-4.33-5.81-8.14M576.36 848.57c3.28-.72 6.53-.02 9.57 1.28-1.92 1.76-4.24 3-6.92 2.92 1.11 2.25 1.5 4.71 1.43 7.22-3.24-1.66-6.79-4.35-6.28-8.46l2.58.32c-.09-.82-.28-2.46-.38-3.28"/><path d="M582.26 855.59c1.98.23 4.59-.81 6.05 1.06 1.34 1.28 1.75 3.16 2.51 4.81-3.49-.55-8.24-1.48-8.56-5.87M405.53 861.09c.34-.78 1.02-2.33 1.37-3.11 1.79 2.13 4.16 4.29 3.61 7.4-2.7-.07-3.95-2.17-4.98-4.29M412.01 858.62c2.69 1.22 3.67 4.96 2.18 7.46-3.8-.12-3-4.98-2.18-7.46M404.87 863.82c-3.67 1.84-4.79-2.82-4.4-5.49 1.7 1.61 4.94 2.46 5.31 5.18zM387.04 860.57c2.47 0 7.71-.18 7.29 3.48-3.12 1.83-5.83-.94-7.29-3.48"/><path d="M393.57 860.2c1.2.01 3.6.04 4.8.05 3.13 3.17 2.55 8.34-.08 11.65-1.18-2.42-2.35-5.22-.31-7.51a9.16 9.16 0 0 1-4.41-4.19M382.95 862.45c2.88.09 6.72.15 7.48 3.67-3.2 1.29-6.63-.25-7.48-3.67M391.9 868.98c-.42-2.2 1.67-3.45 3.23-4.42 1.02 2.95.17 5.92-1.44 8.47-.65-1.33-1.33-2.66-1.79-4.05M402.46 865.48c1.34-3.07 2.98 1.29 2.81 2.57 1.74-.37 3.4-1.14 4.84-2.17-.05 2.64-.63 5.58-3.11 7.03-1.03-1.12-1.95-2.33-2.93-3.47-2.64 4.18-3.7-2.54-1.61-3.96M377.7 866.55c2.53-.39 6.52-1.47 7.95 1.36-1.72 3.56-6.21.87-7.95-1.36M387.68 868.93c.58-1.29 1.99-1.7 3.14-2.27.98 2.89-.15 5.7-1.48 8.26-.98-1.85-2.11-3.83-1.66-5.99M411.7 874.27c-1.89-3.04-.68-7.47 3.34-7.58.39 3.06-1.41 5.46-3.34 7.58M528.23 870.17c2.49-2.92 6.66-2.4 8.84.57-2.93.98-6.66 2.69-8.84-.57"/><path d="M385.06 876.96c-2.27-2.13-3.15-8.51 1.52-7.58.64 2.66-.54 5.17-1.52 7.58M522 871.02c-.28-2.27 2.5-1.89 3.61-.86 1.55 1.02 2.06 2.84 2.62 4.51-2.08-.82-6.88-.42-6.23-3.65M374.29 873.56c-.34-3.16 4.42-3.52 6.74-3.51-.21 3.76-3.82 4.24-6.74 3.51M380.18 874.17c4.28-.16 1.11 7.06-2.11 6.81-1.67.85-2.3 2.77-3.41 4.16-1.49-2.72-1.5-6.25 1.42-8.02.47 1.16 1.56 1.87 2.51 2.66-.13-2.07-.76-4.57 1.59-5.61M367.93 878.26c1.74-2.62 4.67-3.96 7.8-3.78-.7 1.46-.95 3.41-2.6 4.17-1.75-.01-3.48-.14-5.2-.39M530.35 882.79c1.83-2.37 4.76-3.38 7.42-4.49-.02 2.36-1.12 4.45-2.33 6.42-2.09.02-6.15 1.75-5.09-1.93M363.65 883.42c1.41-1.63 3.01-3.36 5.27-3.64 1.79-.21 2.39.49 1.78 2.09-1.04 2.94-4.76 1.75-7.05 1.55M471.28 880.16c1.22.86 2.44 1.73 3.66 2.63-.04 1.9-.1 3.8-.17 5.72-3.73-1.21-3.48-5.23-3.49-8.35M370.07 889.84c-.86-3.11-.84-6.45 2.29-8.27 2.11 2.98.2 6.32-2.29 8.27M359.61 887.54c2.18-1.73 4.66-3.23 7.57-2.79-.34 1.01-.67 2.03-1 3.06 1.03-.56 2.08-1.08 3.15-1.58.45 2.96-.8 5.61-2.5 7.95-1.3-1.66-1.31-3.81-1.25-5.79-2.08.35-4.14.25-5.97-.85M467.16 885.25c1.54.62 3.16 1.13 4.51 2.15 1.88 1.15.57 3.7.8 5.41-2.93-1.5-5.33-4.1-5.31-7.56M549.78 886.93c2.5-1.21 6.85-.9 8.29 1.74-1.88 1.35-4.32 2.72-6.68 1.73-1.03-.6-4.02-2.53-1.61-3.47M557.02 890.51c3.01-1.12 6.2-.71 9.03.76-1.22 4.17-8.74 4.1-9.03-.76"/><path d="M358.3 897.93c-.14-3.38 1.85-6.56 5.46-6.73.77 3.69-2.7 5.43-5.46 6.73M554.73 900.1c-2.93-1.99-6.72-4.81-5.25-8.89 1.65.78 3.73 1.15 4.79 2.83.52 1.97.39 4.02.46 6.06M564.04 896.06c1.83-3.47 6.78-1.21 9.58-.2-2.31 3.07-7.64 4.27-9.58.2M555.34 894.35c4.96-1.1 7.26 4.19 6.18 8.3-2.98-1.88-6.08-4.47-6.18-8.3"/><path d="M562.46 898.16c4.77-.42 6.76 4.59 5.66 8.56-3-1.94-6.06-4.57-5.66-8.56M569.91 899.95c2.8-2.06 6.47-1.77 9.37-.06 1.26 1.36-1.58 1.84-2.3 2.57-2.74 1.27-5.46-.28-7.07-2.51"/><path d="M568.69 902.01c1.46.2 2.95.44 4.42.68 1.25 2.37 1.52 4.99 1.23 7.64-2.9-1.96-5.91-4.44-5.65-8.32M576.02 906.8c1.57-.53 3.2-1.64 4.92-.96 2.37.91 3.2 3.55 4.34 5.59-3.69.01-7.24-1.43-9.26-4.63"/></g></svg>